<svg xmlns="http://www.w3.org/2000/svg" viewBox="0 0 600 400"><g style="isolation:isolate"><path fill="#dbf1ff" d="M46.67,341.52l505.23.37s27-72.15,2.92-111.93c-29.14-48.21-45.59-31.24-58.41-50.65-17-25.71-18-135.15-112.23-135.15-91.77,0-110.26,101-130.54,101-25.8,0-63.93-49.92-126.5-22.5C-9.59,182.58,46.67,341.52,46.67,341.52Z" opacity=".5"/><path fill="#c5eae2" d="M38.74,341.76c0,10.33,117,18.69,261.26,18.69s261.26-8.36,261.26-18.69-117-18.71-261.26-18.71S38.74,331.43,38.74,341.76Z"/><path fill="#a2ddd0" d="M68.81,339.55s11.24-15.81,4.08-21.86c-4.39-3.72-6.54,8.17-6.54,8.17S63.86,303.17,55.76,308c-4,2.34,4.36,23.26,4.36,23.26s-5.92-10.88-10.59-7.89C42,328.15,60,339.39,60,339.39Z"/><path fill="#e0fbf0" d="M64.53,339.47l-5.81-25.7a.26.26,0,0,1,.21-.31.28.28,0,0,1,.33.2l5.84,25.82Z"/><path fill="#e0fbf0" d="M61.43,339.41l-10.7-12.33a.26.26,0,0,1,0-.37.29.29,0,0,1,.39,0l11,12.69Z"/><path fill="#e0fbf0" d="M66.51,339.51l4.4-18.83a.27.27,0,0,1,.33-.2.26.26,0,0,1,.21.31l-4.38,18.73Z"/><path fill="#a2ddd0" d="M466.12,107.3c-4-2.16-8.94-3.77-13.55-1.84-3.75,1.58-8.26,4.35-6.74,9a14.77,14.77,0,0,0,11.47,9.84,25,25,0,0,0,11-.4l9.75-2.72a.47.47,0,0,0,.24-.72,72,72,0,0,1-5.95-7.39A18.36,18.36,0,0,0,466.12,107.3Z"/><path fill="#e0fbf0" d="M478,120.88a46.88,46.88,0,0,1-6.26-1.86l-.5-.21c.44.44.87.88,1.29,1.34a6.34,6.34,0,0,1,1.24,1.95c.09.24-.27.43-.36.18a6,6,0,0,0-1.23-1.91c-.61-.67-1.25-1.29-1.88-1.93a.9.9,0,0,1,0-.09c-1.4-.69-2.73-1.51-4.14-2.19a34.18,34.18,0,0,0-4.68-1.84c.26,1.91,1.9,3.4,3.1,4.78l2.2,2.49a3.41,3.41,0,0,1,1.12,2.21c0,.26-.41.23-.41,0,0-1.06-1-1.93-1.69-2.67l-2.25-2.56c-1.11-1.27-2.3-2.61-2.49-4.35-2.34-.71-4.74-1.25-7.12-1.78-.79-.18-1.57-.35-2.36-.51a24.77,24.77,0,0,0,10.05,12.41c.23.14,0,.48-.22.34A25.09,25.09,0,0,1,451,111.82a23,23,0,0,0-4.9-.49c-.26,0-.23-.4,0-.41.61,0,1.22,0,1.82.06l0,0a30.19,30.19,0,0,1,7.07-3.54c2.5-.87,5.44-1.76,8.08-1.13.26.06.12.45-.13.39a9.69,9.69,0,0,0-4.25.14A29,29,0,0,0,448.62,111c.84.09,1.67.22,2.49.38a.16.16,0,0,1,.21,0q.66.12,1.32.27l2.69.59a21,21,0,0,1,5.67-2.18c2.23-.51,4.47-1,6.71-1.44a.2.2,0,0,1,.08.4c-2.16.46-4.33.9-6.49,1.39a20.79,20.79,0,0,0-5.36,2c1.05.24,2.11.5,3.16.77.65.18,1.31.37,2,.57a.22.22,0,0,1,.27.08c1.24.39,2.47.83,3.66,1.34h0a15.79,15.79,0,0,0,3.63-1.38,7.43,7.43,0,0,1,4-.16c.25,0,.22.46,0,.41a10.31,10.31,0,0,0-2.07-.21,5.35,5.35,0,0,0-2,.45,19.83,19.83,0,0,1-2.86,1.19c1.83.85,3.53,1.95,5.37,2.77a40.88,40.88,0,0,0,7.1,2.22C478.36,120.56,478.23,121,478,120.88Z"/><path fill="#a2ddd0" d="M474,92.92a21.13,21.13,0,0,0,4.71-9.4,50.21,50.21,0,0,0,.54-11.78c0-.62-.66-1.16-1.13-.74-2.11,1.88-5.11,1.29-7.78,1.15a59.84,59.84,0,0,0-6.56,0,24.8,24.8,0,0,0-12.38,3.65,18,18,0,0,0-5,5,19.24,19.24,0,0,0-1.77,2.46,21.16,21.16,0,0,0-2,17.06c1,2.92,3.25,3.15,5.71,3.5a26.26,26.26,0,0,0,9.49-.35C464.19,102,469.72,98,474,92.92Z"/><path fill="#e0fbf0" d="M459.27,102.45a6.94,6.94,0,0,0-6-1.46,10.27,10.27,0,0,1-3.58.21,18.24,18.24,0,0,1-3.46-1,55.42,55.42,0,0,1,4.38-5.51l.12-.13c5.87-.06,10.75,4.11,16.58,4.39.43,0,.5-.63.07-.65-5.64-.28-10.38-4.2-16-4.39a38.7,38.7,0,0,1,6.56-5.12l2.39-1.49a23.85,23.85,0,0,1,4.43,1.43,11.21,11.21,0,0,0,3.94.62c2.72-.07,5.35-.91,8.07-1,.42,0,.49-.67.06-.66-2.66,0-5.24.83-7.9,1a11,11,0,0,1-4.47-.77,26.72,26.72,0,0,0-3.3-1.12c2.67-1.65,5.34-3.3,7.87-5.15,3.62,0,7.53-.25,10.09-3.16.29-.32-.25-.72-.53-.41-2.19,2.49-5.53,2.85-8.66,2.91.94-.72,1.87-1.47,2.77-2.27a35.18,35.18,0,0,0,6.42-7.35c.23-.35-.3-.75-.53-.39a39.43,39.43,0,0,1-9.77,10,.34.34,0,0,0-.32.24c-.4.29-.8.58-1.21.86a14.13,14.13,0,0,1,.27-3,33.29,33.29,0,0,1,2.16-6.38.33.33,0,0,0-.62-.25c-1.33,3.2-2.65,6.53-2.44,10.06l-1,.65c-1.81,1.21-3.7,2.33-5.57,3.46l0,0c-1,.6-2,1.22-3,1.86-.72-2.51.1-5.09,1-7.46a24.7,24.7,0,0,0,1.77-7.89c0-.43-.65-.5-.66-.07a19,19,0,0,1-.66,4.57c-.4,1.46-1,2.85-1.47,4.29a11.28,11.28,0,0,0-.52,7,35.15,35.15,0,0,0-5.75,4.65,40.94,40.94,0,0,0-3.06,3.53c-1.59-2.66-.72-5.93.06-8.73a18.8,18.8,0,0,0,.64-8.87c-.09-.42-.74-.32-.66.1a15.39,15.39,0,0,1,.19,5,49.92,49.92,0,0,1-1.3,5.4c-.62,2.55-.82,5.35.64,7.64-1.05,1.37-2.05,2.79-3,4.21-.25.35.29.75.53.4.35-.51.72-1,1.07-1.52,2.06.74,4.18,1.46,6.39,1.1a10.94,10.94,0,0,1,3.51-.32,6.07,6.07,0,0,1,3.13,1.45C459.2,103.26,459.59,102.73,459.27,102.45Z"/><path fill="#a2ddd0" d="M103,163.39a89.67,89.67,0,0,1-11.67.76.58.58,0,0,0-.45.83c1.88,3.7,3.78,7.41,5.67,11.1a30.64,30.64,0,0,0,8.8,10.28,18.19,18.19,0,0,0,18.5,2.19c5.53-2.55,4.27-9,2.57-13.67-2.1-5.8-7.7-8.95-13-10.75A22.33,22.33,0,0,0,103,163.39Z"/><path fill="#e0fbf0" d="M91.18,164.73a57.38,57.38,0,0,0,6.92,4.12l.6.27c-.76,0-1.53-.05-2.29-.05a7.6,7.6,0,0,0-2.8.51c-.31.12-.17.6.13.48a7.44,7.44,0,0,1,2.76-.49c1.12,0,2.22.06,3.32.1a.25.25,0,0,0,.13,0c1.79.69,3.65,1.23,5.44,1.93a42.86,42.86,0,0,1,5.58,2.71c-1.94,1.35-4.67,1.12-6.93,1.18l-4.09.09a4.23,4.23,0,0,0-2.94.83c-.24.22.13.57.36.35,1-.91,2.63-.67,3.84-.71l4.21-.09c2.07-.06,4.29-.09,6-1.37,2.61,1.52,5.11,3.25,7.57,5,.81.56,1.63,1.13,2.44,1.71a30.44,30.44,0,0,1-19.66,1.25c-.31-.09-.43.4-.12.49a31,31,0,0,0,20.24-1.38,28.47,28.47,0,0,1,4.54,4c.22.23.56-.13.34-.36a19.88,19.88,0,0,0-1.57-1.61v-.05a37.55,37.55,0,0,0-2.69-9.38c-1.31-3-3-6.4-5.73-8.26-.27-.18-.51.26-.24.44a12.11,12.11,0,0,1,3.42,4,36.17,36.17,0,0,1,2.16,4.2,37,37,0,0,1,2.5,8.55c-.79-.68-1.6-1.32-2.43-1.94A.2.2,0,0,0,122,181l-1.35-1-2.79-2a26.11,26.11,0,0,0-2.75-7c-1.4-2.44-2.88-4.85-4.31-7.29a.25.25,0,0,0-.43.27c1.39,2.34,2.8,4.67,4.17,7a26.5,26.5,0,0,1,2.7,6.52c-1.11-.75-2.23-1.5-3.36-2.22-.7-.45-1.42-.89-2.14-1.31a.28.28,0,0,0-.3-.17,47.85,47.85,0,0,0-4.27-2.2l0,0c-1-1.33-1.17-3-1.77-4.46a9,9,0,0,0-3.18-3.71c-.25-.2-.6.16-.34.36a12.77,12.77,0,0,1,1.92,1.69,7,7,0,0,1,1.27,2.21,23.92,23.92,0,0,0,1.3,3.58c-2.29-.95-4.71-1.57-7-2.56a51,51,0,0,1-7.95-4.57C91.14,164.1,90.9,164.55,91.18,164.73Z"/><path fill="#a2ddd0" d="M293,330.76s-15.42-29-2.89-28.7c5.15.13,9.6,23.19,9.6,23.19s-1-21,9.3-17.74c5.57,1.78-2.86,17.74-2.86,17.74s7.64-10.3,11.93-7.37c7,4.76-5.85,13-5.85,13Z"/><path fill="#a2ddd0" d="M286.28,330.73s-2.72-15.35-8.69-15.09c-4.27.19-.42,10.58,3.2,15.08Z"/><path fill="#e0fbf0" d="M296.79,330.77,290.36,308a.27.27,0,0,0-.35-.19.29.29,0,0,0-.2.35l6.38,22.57Z"/><path fill="#e0fbf0" d="M302.11,330.79l4.46-18.39a.31.31,0,0,0-.22-.35.3.3,0,0,0-.35.21l-4.48,18.53Z"/><path fill="#e0fbf0" d="M283.46,330.72l-4.11-10.26a.29.29,0,0,0-.37-.16.29.29,0,0,0-.16.38l4,10Z"/><path fill="#e0fbf0" d="M306.84,330.82l8.09-9.12a.3.3,0,0,0,0-.41.27.27,0,0,0-.4,0l-8.43,9.51Z"/><path fill="#c1e5fd" d="M448.21,103.71V292.54a3.75,3.75,0,0,1-3.76,3.75H168a3.75,3.75,0,0,1-3.76-3.75V103.71Z"/><path fill="#2f627c" d="M168.36,94.1H444.08a4.13,4.13,0,0,1,4.13,4.13v9.46h-284V98.23A4.13,4.13,0,0,1,168.36,94.1Z"/><path fill="#98d4fc" d="M188.22,100.91a3.12,3.12,0,1,0,3.12-3.11A3.12,3.12,0,0,0,188.22,100.91Z"/><path fill="#ffd471" d="M178,100.89a3.12,3.12,0,1,0,3.12-3.11A3.12,3.12,0,0,0,178,100.89Z"/><path fill="#a2ddd0" d="M167.69,100.88a3.11,3.11,0,1,0,3.11-3.12A3.11,3.11,0,0,0,167.69,100.88Z"/><path fill="#4693b9" d="M112.71,259.85h-31a.2.2,0,0,1-.14-.06l-7.7-7.69H54.53a.22.22,0,0,1-.21-.21.21.21,0,0,1,.21-.2H73.92a.2.2,0,0,1,.15.06l7.7,7.7h30.94a.2.2,0,1,1,0,.4Z"/><path fill="#4693b9" d="M112.71,258.42a1.23,1.23,0,1,1-1.23,1.23A1.23,1.23,0,0,1,112.71,258.42Z"/><path fill="#2f627c" d="M54.53,250.66a1.23,1.23,0,1,0,1.23,1.23A1.23,1.23,0,0,0,54.53,250.66Z"/><path fill="#4693b9" d="M89.44,275.37H66.17a.21.21,0,0,1-.21-.21.2.2,0,0,1,.21-.2H89.36l7.69-7.7a.2.2,0,0,1,.15-.05h15.51a.2.2,0,0,1,.21.2.2.2,0,0,1-.21.2H97.28l-7.7,7.7A.17.17,0,0,1,89.44,275.37Z"/><path fill="#4693b9" d="M112.71,266.18a1.23,1.23,0,1,1-1.23,1.23A1.23,1.23,0,0,1,112.71,266.18Z"/><path fill="#ffd471" d="M66.17,273.94a1.23,1.23,0,1,0,1.22,1.22A1.23,1.23,0,0,0,66.17,273.94Z"/><path fill="#4693b9" d="M112.71,252.1H89.44a.28.28,0,0,1-.15-.06l-7.69-7.7H66.17a.21.21,0,0,1-.21-.21.2.2,0,0,1,.21-.2H81.68a.2.2,0,0,1,.15.06l7.69,7.7h23.19a.2.2,0,0,1,.21.2A.21.21,0,0,1,112.71,252.1Z"/><path fill="#4693b9" d="M112.71,250.66a1.23,1.23,0,1,1-1.23,1.23A1.23,1.23,0,0,1,112.71,250.66Z"/><path fill="#2a817d" d="M66.17,242.9a1.23,1.23,0,1,0,1.22,1.23A1.24,1.24,0,0,0,66.17,242.9Z"/><path fill="#4693b9" d="M112.71,244.34H93.32a.21.21,0,1,1,0-.41h19.39a.2.2,0,0,1,.21.2A.21.21,0,0,1,112.71,244.34Z"/><path fill="#4693b9" d="M112.71,242.9a1.23,1.23,0,1,1-1.23,1.23A1.24,1.24,0,0,1,112.71,242.9Z"/><path fill="#a2ddd0" d="M93.32,242.9a1.23,1.23,0,1,0,1.23,1.23A1.24,1.24,0,0,0,93.32,242.9Z"/><path fill="#4693b9" d="M85.56,267.61H70a.2.2,0,0,1-.2-.2.19.19,0,0,1,.2-.2H85.56a.19.19,0,0,1,.2.2A.2.2,0,0,1,85.56,267.61Z"/><path fill="#4693b9" d="M85.56,266.18a1.23,1.23,0,1,1-1.23,1.23A1.23,1.23,0,0,1,85.56,266.18Z"/><path fill="#98d4fc" d="M70,266.18a1.23,1.23,0,1,0,1.23,1.23A1.23,1.23,0,0,0,70,266.18Z"/><path fill="#4693b9" d="M112.71,236.58H85.56a.2.2,0,0,1-.14-.06l-7.7-7.7H62.29a.2.2,0,0,1-.21-.2.21.21,0,0,1,.21-.21H77.8a.25.25,0,0,1,.15.06l7.7,7.7h27.06a.21.21,0,0,1,.21.21A.2.2,0,0,1,112.71,236.58Z"/><path fill="#4693b9" d="M112.71,235.15a1.23,1.23,0,1,1-1.23,1.23A1.23,1.23,0,0,1,112.71,235.15Z"/><path fill="#ffd471" d="M62.29,227.39a1.23,1.23,0,1,0,1.22,1.23A1.23,1.23,0,0,0,62.29,227.39Z"/><path fill="#4693b9" d="M77.8,236.58H54.53a.21.21,0,1,1,0-.41H77.8a.21.21,0,0,1,.21.21A.2.2,0,0,1,77.8,236.58Z"/><path fill="#4693b9" d="M77.8,235.15a1.23,1.23,0,1,1-1.23,1.23A1.23,1.23,0,0,1,77.8,235.15Z"/><path fill="#98d4fc" d="M54.53,235.15a1.23,1.23,0,1,0,1.23,1.23A1.23,1.23,0,0,0,54.53,235.15Z"/><path fill="#eaf6fe" d="M314.24,128.23H431.84a4.05,4.05,0,0,1,4.05,4.05v56.2a4.06,4.06,0,0,1-4.06,4.06H314.24a4.05,4.05,0,0,1-4.05-4.05V132.28A4.05,4.05,0,0,1,314.24,128.23Z" opacity=".8"/><path fill="#b5d4e3" d="M430.46,135.57H328.62a.14.14,0,0,1-.14-.14.15.15,0,0,1,.14-.15H430.46a.15.15,0,0,1,.14.15A.14.14,0,0,1,430.46,135.57Z"/><path fill="#ffd471" d="M326,136h-9.94a.59.59,0,1,1,0-1.17H326a.59.59,0,0,1,0,1.17Z"/><path fill="#b5d4e3" d="M430.46,148.34H328.62a.15.15,0,0,1,0-.3H430.46a.15.15,0,0,1,0,.3Z"/><path fill="#a2ddd0" d="M326,148.78h-9.94a.6.6,0,0,1-.59-.59.59.59,0,0,1,.59-.58H326a.58.58,0,0,1,.58.58A.59.59,0,0,1,326,148.78Z"/><path fill="#b5d4e3" d="M430.46,161.1H328.62a.14.14,0,0,1-.14-.14.15.15,0,0,1,.14-.15H430.46a.15.15,0,0,1,.14.15A.14.14,0,0,1,430.46,161.1Z"/><path fill="#98d4fc" d="M326,161.54h-9.94a.59.59,0,1,1,0-1.17H326a.59.59,0,0,1,0,1.17Z"/><path fill="#b5d4e3" d="M430.46,173.87H328.62a.15.15,0,0,1-.14-.15.14.14,0,0,1,.14-.14H430.46a.14.14,0,0,1,.14.14A.15.15,0,0,1,430.46,173.87Z"/><path fill="#a2ddd0" d="M326,174.31h-9.94a.6.6,0,0,1-.59-.59.59.59,0,0,1,.59-.58H326a.58.58,0,0,1,.58.58A.59.59,0,0,1,326,174.31Z"/><path fill="#b5d4e3" d="M430.46,186.63H328.62a.14.14,0,0,1-.14-.14.15.15,0,0,1,.14-.15H430.46a.15.15,0,0,1,.14.15A.14.14,0,0,1,430.46,186.63Z"/><path fill="#ffd471" d="M326,187.07h-9.94a.59.59,0,1,1,0-1.17H326a.59.59,0,0,1,0,1.17Z"/><path fill="#4693b9" d="M333.78,184.79a.58.58,0,0,1-.59.58h-1.66a.59.59,0,0,1-.59-.58v-5.51a.59.59,0,0,1,.59-.59h1.66a.58.58,0,0,1,.59.59Z"/><path fill="#98d4fc" d="M334.87,177.91h1.26a.58.58,0,0,1,.58.58v6.29a.59.59,0,0,1-.59.59h-1.26a.58.58,0,0,1-.58-.58v-6.29A.58.58,0,0,1,334.87,177.91Z"/><path fill="#a2ddd0" d="M334.71,188.74a.88.88,0,1,1-.88-.87A.87.87,0,0,1,334.71,188.74Z"/><path fill="#4693b9" d="M340.72,174h1.67a.59.59,0,0,1,.59.59v10.18a.59.59,0,0,1-.59.59h-1.67a.58.58,0,0,1-.58-.58V174.6A.58.58,0,0,1,340.72,174Z"/><path fill="#98d4fc" d="M344.07,176.74h1.26a.58.58,0,0,1,.58.58v7.46a.58.58,0,0,1-.58.58h-1.26a.59.59,0,0,1-.59-.59v-7.46A.58.58,0,0,1,344.07,176.74Z"/><path fill="#a2ddd0" d="M343.91,188.74a.88.88,0,1,1-.88-.87A.88.88,0,0,1,343.91,188.74Z"/><rect width="2.83" height="12.12" x="349.34" y="173.25" fill="#4693b9" rx=".58"/><path fill="#98d4fc" d="M353.27,169.35h1.26a.58.58,0,0,1,.58.58v14.85a.59.59,0,0,1-.59.59h-1.26a.58.58,0,0,1-.58-.58V169.93A.58.58,0,0,1,353.27,169.35Z"/><path fill="#a2ddd0" d="M353.11,188.74a.88.88,0,1,1-.88-.87A.88.88,0,0,1,353.11,188.74Z"/><path fill="#4693b9" d="M359.12,174h1.67a.59.59,0,0,1,.59.59v10.18a.59.59,0,0,1-.59.59h-1.67a.59.59,0,0,1-.59-.59V174.6A.58.58,0,0,1,359.12,174Z"/><path fill="#98d4fc" d="M362.46,170.91h1.26a.59.59,0,0,1,.59.59v13.3a.58.58,0,0,1-.58.58h-1.27a.58.58,0,0,1-.58-.58v-13.3A.58.58,0,0,1,362.46,170.91Z"/><path fill="#a2ddd0" d="M362.3,188.74a.88.88,0,1,1-.87-.87A.87.87,0,0,1,362.3,188.74Z"/><rect width="2.84" height="27.92" x="367.74" y="157.45" fill="#4693b9" rx=".58"/><path fill="#98d4fc" d="M373.51,184.79a.58.58,0,0,1-.58.58h-1.27a.58.58,0,0,1-.58-.58v-17.6a.58.58,0,0,1,.58-.58h1.27a.58.58,0,0,1,.58.58Z"/><path fill="#a2ddd0" d="M371.5,188.74a.88.88,0,1,1-.87-.87A.87.87,0,0,1,371.5,188.74Z"/><path fill="#4693b9" d="M379.78,184.79a.59.59,0,0,1-.59.58h-1.67a.58.58,0,0,1-.58-.58V169.94a.58.58,0,0,1,.58-.59h1.67a.59.59,0,0,1,.59.59Z"/><path fill="#98d4fc" d="M380.86,164.66h1.26a.58.58,0,0,1,.58.58v19.54a.59.59,0,0,1-.59.59h-1.26a.58.58,0,0,1-.58-.58V165.24A.58.58,0,0,1,380.86,164.66Z"/><path fill="#a2ddd0" d="M380.7,188.74a.88.88,0,1,1-.87-.87A.87.87,0,0,1,380.7,188.74Z"/><path fill="#4693b9" d="M386.72,160h1.67a.58.58,0,0,1,.58.58v24.22a.59.59,0,0,1-.59.59h-1.66a.59.59,0,0,1-.59-.59V160.57A.58.58,0,0,1,386.72,160Z"/><path fill="#98d4fc" d="M390.06,162.51h1.26a.58.58,0,0,1,.58.58v21.68a.59.59,0,0,1-.59.59h-1.26a.59.59,0,0,1-.59-.59V163.1A.58.58,0,0,1,390.06,162.51Z"/><path fill="#a2ddd0" d="M389.9,188.74a.88.88,0,1,1-.88-.87A.87.87,0,0,1,389.9,188.74Z"/><path fill="#4693b9" d="M395.92,160h1.67a.59.59,0,0,1,.59.59v24.22a.59.59,0,0,1-.59.59h-1.67a.58.58,0,0,1-.58-.58V160.57A.58.58,0,0,1,395.92,160Z"/><path fill="#98d4fc" d="M399.26,154.52h1.26a.58.58,0,0,1,.58.58v29.68a.59.59,0,0,1-.59.59h-1.26a.58.58,0,0,1-.58-.58V155.11A.58.58,0,0,1,399.26,154.52Z"/><path fill="#a2ddd0" d="M399.1,188.74a.88.88,0,1,1-.88-.87A.87.87,0,0,1,399.1,188.74Z"/><path fill="#4693b9" d="M405.12,155.7h1.67a.58.58,0,0,1,.58.58v28.51a.59.59,0,0,1-.59.59h-1.67a.58.58,0,0,1-.58-.58V156.28A.58.58,0,0,1,405.12,155.7Z"/><rect width="2.43" height="34.55" x="407.88" y="150.82" fill="#98d4fc" rx=".58"/><path fill="#a2ddd0" d="M408.3,188.74a.88.88,0,1,1-.88-.87A.88.88,0,0,1,408.3,188.74Z"/><path fill="#4693b9" d="M414.31,146.14H416a.58.58,0,0,1,.58.58v38.06a.59.59,0,0,1-.59.59h-1.67a.58.58,0,0,1-.58-.58V146.73A.58.58,0,0,1,414.31,146.14Z"/><rect width="2.43" height="35.5" x="417.08" y="149.87" fill="#98d4fc" rx=".58"/><path fill="#a2ddd0" d="M417.5,188.74a.88.88,0,1,1-.88-.87A.88.88,0,0,1,417.5,188.74Z"/><rect width="2.83" height="47.62" x="422.93" y="137.75" fill="#4693b9" rx=".58"/><path fill="#98d4fc" d="M426.86,141.86h1.26a.59.59,0,0,1,.59.59v42.34a.58.58,0,0,1-.58.58h-1.26a.59.59,0,0,1-.59-.59V142.44A.58.58,0,0,1,426.86,141.86Z"/><path fill="#a2ddd0" d="M426.69,188.74a.88.88,0,1,1-.87-.87A.87.87,0,0,1,426.69,188.74Z"/><polygon fill="#f9c969" points="333.9 168.56 333.76 168 342.91 165.67 352.2 159.77 361.31 163.24 370.57 148.52 379.84 157.94 388.84 150.52 398.13 144.6 407.33 144.6 425.65 131.79 425.98 132.27 407.51 145.19 398.31 145.19 389.18 150.99 379.81 158.74 370.68 149.46 361.55 163.96 352.26 160.42 343.1 166.23 333.9 168.56"/><path fill="#ffd471" d="M334.71,168.28a.88.88,0,1,1-.88-.88A.88.88,0,0,1,334.71,168.28Z"/><path fill="#ffd471" d="M343.91,165.94a.88.88,0,1,1-.88-.88A.89.89,0,0,1,343.91,165.94Z"/><path fill="#ffd471" d="M353.11,160.09a.88.88,0,1,1-.88-.87A.88.88,0,0,1,353.11,160.09Z"/><path fill="#ffd471" d="M362.3,163.6a.88.88,0,1,1-.87-.88A.87.87,0,0,1,362.3,163.6Z"/><path fill="#ffd471" d="M371.5,149a.88.88,0,1,1-.87-.87A.87.87,0,0,1,371.5,149Z"/><path fill="#ffd471" d="M380.7,158.34a.88.88,0,1,1-.87-.88A.87.87,0,0,1,380.7,158.34Z"/><path fill="#ffd471" d="M389.9,150.74a.88.88,0,1,1-.88-.88A.88.88,0,0,1,389.9,150.74Z"/><path fill="#ffd471" d="M399.1,144.89a.88.88,0,1,1-.88-.88A.87.87,0,0,1,399.1,144.89Z"/><path fill="#ffd471" d="M408.3,144.89a.88.88,0,1,1-.88-.88A.88.88,0,0,1,408.3,144.89Z"/><path fill="#ffd471" d="M417.5,138.46a.88.88,0,1,1-.88-.88A.89.89,0,0,1,417.5,138.46Z"/><path fill="#ffd471" d="M426.69,132a.88.88,0,1,1-.87-.88A.88.88,0,0,1,426.69,132Z"/><rect width="74.64" height="6.49" x="175.69" y="122.21" fill="#98d4fc" rx="1.84"/><path fill="#a2ddd0" d="M224.53,133.53a1.83,1.83,0,0,1-1.85,1.82H177.53a1.82,1.82,0,1,1,0-3.63h45.15A1.83,1.83,0,0,1,224.53,133.53Z"/><rect width="118.71" height="1.38" x="175.69" y="144.78" fill="#fefefe" rx=".46"/><rect width="118.71" height="1.38" x="175.69" y="149.42" fill="#fefefe" rx=".46"/><rect width="118.71" height="1.38" x="175.69" y="154.06" fill="#fefefe" rx=".46"/><rect width="118.71" height="1.38" x="175.69" y="158.7" fill="#fefefe" rx=".46"/><rect width="76.58" height="1.38" x="175.69" y="163.34" fill="#fefefe" rx=".46"/><rect width="118.71" height="1.38" x="175.69" y="167.97" fill="#fefefe" rx=".46"/><rect width="118.71" height="1.38" x="175.69" y="172.61" fill="#fefefe" rx=".46"/><path fill="#fefefe" d="M294.4,178.17a.47.47,0,0,1-.46.46H176.15a.47.47,0,0,1-.46-.46v-.46a.47.47,0,0,1,.46-.47H293.94a.47.47,0,0,1,.46.47Z"/><rect width="118.71" height="1.38" x="175.69" y="181.89" fill="#fefefe" rx=".46"/><rect width="118.71" height="1.38" x="175.69" y="186.52" fill="#fefefe" rx=".46"/><rect width="59.05" height="1.38" x="175.69" y="191.16" fill="#fefefe" rx=".46"/><polygon fill="#f9c969" points="379.9 245.6 407.85 228.61 435.8 245.6 407.85 268.48 379.9 245.6"/><rect width="47.59" height="64.88" x="384.18" y="207" fill="#98d4fc" rx="2.1"/><path fill="#fefefe" d="M426.88,230.23h-37.8a.35.35,0,0,1,0-.7h37.8a.35.35,0,0,1,0,.7Z"/><path fill="#fefefe" d="M426.88,232.26h-37.8a.35.35,0,0,1-.35-.35.35.35,0,0,1,.35-.35h37.8a.35.35,0,0,1,.34.35A.34.34,0,0,1,426.88,232.26Z"/><path fill="#fefefe" d="M409.38,234.29h-20.3a.35.35,0,1,1,0-.69h20.3a.35.35,0,1,1,0,.69Z"/><path fill="#fefefe" d="M426.88,236.33h-37.8a.35.35,0,1,1,0-.7h37.8a.35.35,0,0,1,0,.7Z"/><path fill="#fefefe" d="M426.88,238.36h-37.8a.35.35,0,0,1-.35-.35.35.35,0,0,1,.35-.35h37.8a.35.35,0,0,1,.34.35A.34.34,0,0,1,426.88,238.36Z"/><path fill="#fefefe" d="M426.88,240.39h-37.8a.35.35,0,0,1-.35-.35.35.35,0,0,1,.35-.35h37.8a.35.35,0,0,1,.34.35A.34.34,0,0,1,426.88,240.39Z"/><path fill="#fefefe" d="M426.88,242.43h-37.8a.35.35,0,0,1-.35-.35.35.35,0,0,1,.35-.35h37.8a.34.34,0,0,1,.34.35A.35.35,0,0,1,426.88,242.43Z"/><path fill="#fefefe" d="M419.88,244.46h-30.8a.35.35,0,0,1,0-.7h30.8a.35.35,0,0,1,0,.7Z"/><path fill="#fefefe" d="M426.88,246.49h-37.8a.35.35,0,0,1-.35-.35.35.35,0,0,1,.35-.35h37.8a.35.35,0,0,1,.34.35A.34.34,0,0,1,426.88,246.49Z"/><path fill="#fefefe" d="M426.88,248.53h-37.8a.35.35,0,0,1-.35-.35.35.35,0,0,1,.35-.35h37.8a.34.34,0,0,1,.34.35A.35.35,0,0,1,426.88,248.53Z"/><path fill="#fefefe" d="M398.18,250.56h-9.1a.35.35,0,0,1,0-.7h9.1a.35.35,0,1,1,0,.7Z"/><path fill="#fefefe" d="M426.88,252.59h-37.8a.35.35,0,0,1-.35-.35.35.35,0,0,1,.35-.35h37.8a.35.35,0,0,1,.34.35A.34.34,0,0,1,426.88,252.59Z"/><path fill="#fefefe" d="M426.88,254.62h-37.8a.35.35,0,1,1,0-.69h37.8a.35.35,0,0,1,0,.69Z"/><path fill="#fefefe" d="M426.88,256.66h-37.8a.35.35,0,1,1,0-.7h37.8a.35.35,0,0,1,0,.7Z"/><path fill="#fefefe" d="M422.68,258.69h-33.6a.35.35,0,0,1-.35-.35.35.35,0,0,1,.35-.35h33.6a.35.35,0,0,1,.35.35A.35.35,0,0,1,422.68,258.69Z"/><path fill="#fefefe" d="M426.88,260.72h-37.8a.35.35,0,1,1,0-.69h37.8a.35.35,0,0,1,0,.69Z"/><path fill="#fefefe" d="M426.88,262.76h-37.8a.35.35,0,0,1-.35-.35.35.35,0,0,1,.35-.35h37.8a.34.34,0,0,1,.34.35A.35.35,0,0,1,426.88,262.76Z"/><path fill="#fefefe" d="M426.88,264.79h-37.8a.35.35,0,1,1,0-.7h37.8a.35.35,0,0,1,0,.7Z"/><path fill="#fefefe" d="M398.88,266.82h-9.8a.35.35,0,0,1-.35-.35.35.35,0,0,1,.35-.35h9.8a.35.35,0,0,1,.35.35A.35.35,0,0,1,398.88,266.82Z"/><path fill="#4693b9" d="M401.06,218.4a6,6,0,1,1-6-6A6,6,0,0,1,401.06,218.4Z"/><path fill="#bfe4fd" d="M395.07,223.91a5.49,5.49,0,0,0,4.66-2.59,3.9,3.9,0,0,0-2.83-2.48,2.75,2.75,0,0,1-3.5,0,3.89,3.89,0,0,0-2.89,2.65A5.5,5.5,0,0,0,395.07,223.91Z"/><path fill="#bfe4fd" d="M395.15,219.15a2.42,2.42,0,1,0-2.42-2.42A2.42,2.42,0,0,0,395.15,219.15Z"/><polygon points="379.9 245.6 407.85 260.46 435.8 245.6 407.85 268.48 379.9 245.6" style="mix-blend-mode:multiply" fill="#98d4fc" opacity=".2"/><polygon fill="#ffd471" points="379.9 279.69 435.8 279.69 435.8 245.71 407.85 262.7 379.9 245.71 379.9 279.69"/><path fill="#f9c969" d="M408.12,262.54c8.06,2.7,15.92,6.39,22.53,11.82a46.16,46.16,0,0,1,5.15,4.93c.28.31-.17.77-.45.46-5.66-6.32-13-10.84-20.78-14.11q-3.27-1.36-6.62-2.47C407.55,263,407.72,262.41,408.12,262.54Z"/><path fill="#f9c969" d="M407.59,262.54c-8.07,2.7-15.93,6.39-22.54,11.82a47,47,0,0,0-5.15,4.93c-.28.31.18.77.45.46,5.66-6.32,13-10.84,20.79-14.11,2.17-.91,4.38-1.73,6.61-2.47C408.15,263,408,262.41,407.59,262.54Z"/><path fill="#4693b9" d="M200.23,206.22h2.16V87.64H203V206.22h2a.82.82,0,1,1,0,1.63h-4.75a.82.82,0,0,1,0-1.63Z"/><path fill="#387694" d="M200.93,208.93h.55v-1.1h.68v1.1H203v-1.1h.68v1.1h.54a.14.14,0,0,1,.14.14v1.59a.64.64,0,0,1,0,.07l-.76,1.27a.13.13,0,0,1-.12.06h-.06v.28a.4.4,0,0,1-.4.4h-.09a2.36,2.36,0,0,1-.74,1.14.75.75,0,1,0,1.23.57v-.14a.35.35,0,0,1,.69,0v.14a1.42,1.42,0,0,1-.42,1,1.45,1.45,0,0,1-1,.42,1.33,1.33,0,0,1-.28,0,1.43,1.43,0,0,1-1.14-1.56,1.52,1.52,0,0,1,.53-1,1.8,1.8,0,0,0,.43-.59h0a.4.4,0,0,1-.41-.4v-.28h-.06a.11.11,0,0,1-.11-.06l-.76-1.27,0-.07v-1.59A.13.13,0,0,1,200.93,208.93Z"/><path fill="#387694" d="M73.11,84a2,2,0,0,0,3.56,1.2h48.6a.27.27,0,0,1,.26.27V260s0,0,0,0h-4.15a.83.83,0,0,0-.83.83v.36a.83.83,0,0,0,.83.82h.93v4.93h-.93a.83.83,0,0,0-.83.83v.35a.83.83,0,0,0,.83.83h.93v20.13h-.93a.84.84,0,0,0-.83.83v4.8a.83.83,0,0,0,.83.83h22.8a.83.83,0,0,0,.83-.83v-4.8a.83.83,0,0,0-.83-.83H143V268.94h1.2a.83.83,0,0,0,.83-.83v-.35a.83.83,0,0,0-.83-.83H143V262h1.2a.83.83,0,0,0,.83-.82v-.36a.83.83,0,0,0-.83-.83H140V107.32h-1.47a.27.27,0,0,1-.17-.06l-.7-.6-9.94,11.69a.26.26,0,0,1-.2.1l-.09,0a.26.26,0,0,1-.17-.25V85.51a.26.26,0,0,1,.26-.27h73.64a.29.29,0,0,1,.23.14s0,0,0,.06a2,2,0,1,0,2.71,0,.15.15,0,0,1,0-.09.26.26,0,0,1,.23-.14h44.5a1.28,1.28,0,0,0,.43-1.49L230.84,73.11a.58.58,0,0,0-.28-.07H218.8L128.44,41.62s0,0,0-.08a2,2,0,1,0-3.82.8l-49,39.78a2.08,2.08,0,0,0-.5-.07A2,2,0,0,0,73.11,84Zm63.54,69.78a.27.27,0,0,1,.24.15.28.28,0,0,1,0,.28L127.71,165a.25.25,0,0,1-.2.09l-.09,0a.24.24,0,0,1-.17-.24V154.08a.26.26,0,0,1,.26-.26Zm-9.14-3.77-.09,0a.24.24,0,0,1-.17-.24V138.72a.25.25,0,0,1,.26-.26h9.41a.28.28,0,0,1,.24.15.28.28,0,0,1,0,.28L127.71,150A.25.25,0,0,1,127.51,150.05Zm9.25,19a.28.28,0,0,1,.24.15.26.26,0,0,1,0,.28l-9.25,10.89a.29.29,0,0,1-.2.09l-.09,0a.25.25,0,0,1-.17-.24V169.35a.26.26,0,0,1,.26-.26Zm0,15.61a.28.28,0,0,1,.24.15.26.26,0,0,1,0,.28L127.71,196a.25.25,0,0,1-.2.09l-.09,0a.25.25,0,0,1-.17-.24V185a.26.26,0,0,1,.26-.26Zm.1,15.3a.26.26,0,0,1,.24.15.24.24,0,0,1,0,.28l-9.34,11a.25.25,0,0,1-.2.09h-.09a.27.27,0,0,1-.17-.25v-11a.25.25,0,0,1,.26-.26Zm-.49,15.41a.27.27,0,0,1,.19.44l-8.84,10.4a.25.25,0,0,1-.2.09h-.09a.27.27,0,0,1-.17-.25V215.67a.26.26,0,0,1,.26-.26Zm.58,15.21a.26.26,0,0,1,.24.15.26.26,0,0,1,0,.28l-9.43,11.1a.26.26,0,0,1-.2.1l-.09,0a.27.27,0,0,1-.17-.25v-11.1a.26.26,0,0,1,.26-.26ZM127.25,72.07a.26.26,0,0,1,.26-.26H134a.3.3,0,0,1,.26.22.24.24,0,0,1-.05.24L127.71,80a.25.25,0,0,1-.2.09l-.09,0a.24.24,0,0,1-.17-.24Zm.22-21.79h0a.26.26,0,0,1,.25.19l5.85,19.28a.26.26,0,0,1,0,.24.27.27,0,0,1-.21.1h-5.85a.25.25,0,0,1-.26-.26V50.54A.26.26,0,0,1,127.47,50.28ZM216.81,73H171L128.46,42.32Zm-.76,10.3a.27.27,0,0,1,.12-.3l14.08-8.13a.31.31,0,0,1,.13,0,.28.28,0,0,1,.13,0L244.59,83a.27.27,0,0,1,.12.3.26.26,0,0,1-.25.19H216.3A.27.27,0,0,1,216.05,83.34ZM213.32,75a.26.26,0,0,1,.26-.26h12.53a.27.27,0,0,1,.25.19.28.28,0,0,1-.12.3l-12.53,7.23a.28.28,0,0,1-.13,0,.31.31,0,0,1-.13,0,.28.28,0,0,1-.13-.23ZM198,83.34a.26.26,0,0,1,.13-.3l13.08-7.56a.31.31,0,0,1,.13,0,.25.25,0,0,1,.26.26v7.56a.26.26,0,0,1-.26.26H198.26A.27.27,0,0,1,198,83.34ZM194.84,75a.27.27,0,0,1,.27-.26h12.95a.26.26,0,0,1,.25.19.26.26,0,0,1-.12.3l-12.95,7.47a.22.22,0,0,1-.13,0,.2.2,0,0,1-.13,0,.24.24,0,0,1-.14-.22ZM179.4,83.34a.26.26,0,0,1,.13-.3l13.21-7.63a.28.28,0,0,1,.13,0,.31.31,0,0,1,.13,0,.28.28,0,0,1,.13.23v7.63a.26.26,0,0,1-.26.26H179.66A.27.27,0,0,1,179.4,83.34ZM176.71,75a.26.26,0,0,1,.26-.26h12.49a.26.26,0,0,1,.25.19.28.28,0,0,1-.12.3L177.1,82.46a.31.31,0,0,1-.13,0,.25.25,0,0,1-.26-.26Zm-15.15,8.32a.27.27,0,0,1,.12-.3l12.92-7.46a.28.28,0,0,1,.13,0,.31.31,0,0,1,.13,0,.28.28,0,0,1,.13.23v7.46a.26.26,0,0,1-.26.26H161.81A.26.26,0,0,1,161.56,83.34ZM158.86,75a.26.26,0,0,1,.26-.26h12.5a.26.26,0,0,1,.25.19.28.28,0,0,1-.12.3l-12.5,7.21a.28.28,0,0,1-.13,0,.33.33,0,0,1-.13,0,.26.26,0,0,1-.13-.23Zm-15.92,8.32a.27.27,0,0,1,.12-.3l13.69-7.9a.23.23,0,0,1,.26,0,.26.26,0,0,1,.13.23v7.9a.26.26,0,0,1-.26.26H143.19A.27.27,0,0,1,142.94,83.34Zm-3.57-.52-12-39.52a2,2,0,0,0,.62-.51L169.9,73H157a.24.24,0,0,0-.12,0L139.75,83a.28.28,0,0,1-.13,0l-.09,0A.28.28,0,0,1,139.37,82.82Zm-12.12.44a.27.27,0,0,1,.06-.17l7.32-8.61a.25.25,0,0,1,.2-.09h0a.28.28,0,0,1,.2.18l2.61,8.62a.26.26,0,0,1,0,.23.26.26,0,0,1-.21.11h-9.93A.27.27,0,0,1,127.25,83.26Zm9.83,39.12a.26.26,0,0,1,.2.43l-9.57,11.26a.25.25,0,0,1-.2.09h-.09a.26.26,0,0,1-.17-.25V122.64a.26.26,0,0,1,.26-.26Zm1.19-2a.27.27,0,0,1-.26.27h-9.45a.27.27,0,0,1-.24-.16.28.28,0,0,1,0-.28l9.45-11.11a.25.25,0,0,1,.2-.09l.09,0a.26.26,0,0,1,.17.24Zm0,16.08a.26.26,0,0,1-.26.26h-9.75a.27.27,0,0,1-.24-.15.26.26,0,0,1,0-.28l9.75-11.47a.25.25,0,0,1,.2-.09l.09,0a.25.25,0,0,1,.17.24Zm0,15.36a.26.26,0,0,1-.26.26h-9.3a.26.26,0,0,1-.24-.15.26.26,0,0,1,0-.28l9.3-10.94a.26.26,0,0,1,.2-.1l.09,0a.27.27,0,0,1,.17.25Zm0,15.27a.26.26,0,0,1-.26.26h-9.49a.27.27,0,0,1-.24-.15.26.26,0,0,1,0-.28l9.49-11.17a.29.29,0,0,1,.2-.09l.09,0a.25.25,0,0,1,.17.24Zm0,15.61a.27.27,0,0,1-.26.27h-9.67a.25.25,0,0,1-.24-.16.24.24,0,0,1,0-.27l9.68-11.39a.25.25,0,0,1,.2-.09l.09,0a.25.25,0,0,1,.17.24Zm0,15.3a.26.26,0,0,1-.26.26H128.6a.26.26,0,0,1-.2-.43l9.41-11.08a.29.29,0,0,1,.2-.09l.09,0a.25.25,0,0,1,.17.24Zm0,15.41a.26.26,0,0,1-.26.26H128.6a.26.26,0,0,1-.24-.15.26.26,0,0,1,0-.28l9.41-11.07a.25.25,0,0,1,.2-.09h.09a.27.27,0,0,1,.17.25Zm0,15.21a.26.26,0,0,1-.26.26h-9.74a.24.24,0,0,1-.23-.15.26.26,0,0,1,0-.28L137.81,217a.25.25,0,0,1,.2-.09h.09a.27.27,0,0,1,.17.25Zm0,15.87a.26.26,0,0,1-.26.26H128.3a.28.28,0,0,1-.24-.15.28.28,0,0,1,0-.28l9.71-11.42a.25.25,0,0,1,.2-.09l.09,0a.25.25,0,0,1,.17.24Zm0,2.24v12.18A1.53,1.53,0,0,0,137,260h-8.51a1.55,1.55,0,0,0-1.22-1.05V246.75a.26.26,0,0,1,.26-.26H138A.26.26,0,0,1,138.27,246.75Zm-4.63,22.19H141v20.13h-4.38a3.94,3.94,0,0,0-2.93-3.79Zm0-6.94H141v4.93h-7.31Zm-9.33,6.94h7.31v16.34a3.94,3.94,0,0,0-2.93,3.79h-4.38Zm7.31-6.94v4.93h-7.31V262ZM108.33,75.36a.25.25,0,0,1,.13-.22.22.22,0,0,1,.13,0,.2.2,0,0,1,.13,0L122.41,83a.27.27,0,0,1,.12.3.26.26,0,0,1-.25.19H108.59a.26.26,0,0,1-.26-.26Zm-14.15,8a.27.27,0,0,1,.12-.3l11.92-6.88a.23.23,0,0,1,.26,0,.26.26,0,0,1,.13.23v6.88a.26.26,0,0,1-.26.26H94.43A.27.27,0,0,1,94.18,83.34Zm-3-8.32a.26.26,0,0,1,.26-.26h12.82a.26.26,0,0,1,.25.19.28.28,0,0,1-.12.3L91.55,82.64a.2.2,0,0,1-.13,0,.22.22,0,0,1-.13,0,.25.25,0,0,1-.13-.22Zm-11.38,8L89,75.49a.23.23,0,0,1,.16-.06l.11,0a.28.28,0,0,1,.15.24v7.58a.26.26,0,0,1-.26.26H80a.27.27,0,0,1-.25-.17A.24.24,0,0,1,79.78,83.07Zm-3.52-.64L125,42.89a2.1,2.1,0,0,0,.54.4V82.4a.25.25,0,0,1-.13.23.33.33,0,0,1-.13,0,.28.28,0,0,1-.13,0l-16.56-9.56a.28.28,0,0,0-.13,0H89.38a.25.25,0,0,0-.16.06L77,83.15s0,0-.07,0A2,2,0,0,0,76.26,82.43Z"/><rect width="19.12" height="22.88" x="126.46" y="84.58" fill="#4693b9" rx="1.89" transform="rotate(180 136.015 96.02)"/><path fill="#98d4fc" d="M131.8,87.38H144A1.59,1.59,0,0,1,145.57,89v14.27a1.59,1.59,0,0,1-1.59,1.59H131.8a0,0,0,0,1,0,0V87.38A0,0,0,0,1,131.8,87.38Z" transform="rotate(180 138.685 96.1)"/><path fill="#f9c969" d="M197.9,235.86a3.2,3.2,0,0,1,2,.8L206.4,243a3.21,3.21,0,0,0,2,.81h30.76A1.15,1.15,0,0,1,240.3,245v33.76a1.14,1.14,0,0,1-1.16,1.13H176.85a1.14,1.14,0,0,1-1.16-1.13V237a1.15,1.15,0,0,1,1.16-1.13Z"/><rect width="60.41" height="44.48" x="188.78" y="212.53" fill="#98d4fc" rx="2.37"/><path fill="#fefefe" d="M243.71,218.78H203.2a.56.56,0,0,1-.57-.57.57.57,0,0,1,.57-.57h40.51a.58.58,0,0,1,.57.57A.57.57,0,0,1,243.71,218.78Z"/><path fill="#fefefe" d="M231.17,222.09h-28a.56.56,0,0,1-.57-.57.57.57,0,0,1,.57-.57h28a.58.58,0,0,1,.57.57A.57.57,0,0,1,231.17,222.09Z"/><path fill="#fefefe" d="M238,225.4H203.2a.56.56,0,0,1-.57-.57.57.57,0,0,1,.57-.57H238a.58.58,0,0,1,.57.57A.57.57,0,0,1,238,225.4Z"/><path fill="#fefefe" d="M218.62,228.71H203.2a.56.56,0,0,1-.57-.56.57.57,0,0,1,.57-.58h15.42a.58.58,0,0,1,.58.58A.57.57,0,0,1,218.62,228.71Z"/><path fill="#fefefe" d="M238,232H203.2a.57.57,0,0,1-.57-.57.56.56,0,0,1,.57-.57H238a.57.57,0,0,1,.57.57A.58.58,0,0,1,238,232Z"/><path fill="#fefefe" d="M231.17,235.34h-28a.57.57,0,0,1-.57-.57.56.56,0,0,1,.57-.57h28a.57.57,0,0,1,.57.57A.58.58,0,0,1,231.17,235.34Z"/><path fill="#fefefe" d="M240.29,238.65H203.2a.56.56,0,0,1-.57-.57.57.57,0,0,1,.57-.57h37.09a.58.58,0,0,1,.57.57A.57.57,0,0,1,240.29,238.65Z"/><path fill="#fefefe" d="M207.23,242h-4a.56.56,0,0,1-.57-.57.57.57,0,0,1,.57-.57h4a.57.57,0,0,1,.56.57A.56.56,0,0,1,207.23,242Z"/><path fill="#fefefe" d="M242.57,245.28H203.2a.58.58,0,0,1,0-1.15h39.37a.58.58,0,0,1,0,1.15Z"/><path fill="#fefefe" d="M230,248.58H203.2a.57.57,0,1,1,0-1.13H230a.57.57,0,1,1,0,1.13Z"/><path fill="#fefefe" d="M238,251.9H203.2a.57.57,0,0,1-.57-.57.56.56,0,0,1,.57-.57H238a.57.57,0,0,1,.57.57A.58.58,0,0,1,238,251.9Z"/><path fill="#ffd471" d="M196.22,218.78h-1.95a.56.56,0,0,1-.57-.57.57.57,0,0,1,.57-.57h1.95a.57.57,0,0,1,.57.57A.56.56,0,0,1,196.22,218.78Z"/><path fill="#2a817d" d="M196.22,222.09h-1.95a.56.56,0,0,1-.57-.57.57.57,0,0,1,.57-.57h1.95a.57.57,0,0,1,.57.57A.56.56,0,0,1,196.22,222.09Z"/><path fill="#4693b9" d="M196.22,225.4h-1.95a.56.56,0,0,1-.57-.57.57.57,0,0,1,.57-.57h1.95a.57.57,0,0,1,.57.57A.56.56,0,0,1,196.22,225.4Z"/><path fill="#ffd471" d="M196.22,228.71h-1.95a.56.56,0,0,1-.57-.56.57.57,0,0,1,.57-.58h1.95a.57.57,0,0,1,.57.58A.56.56,0,0,1,196.22,228.71Z"/><path fill="#2a817d" d="M196.22,232h-1.95a.57.57,0,0,1-.57-.57.56.56,0,0,1,.57-.57h1.95a.56.56,0,0,1,.57.57A.57.57,0,0,1,196.22,232Z"/><path fill="#4693b9" d="M196.22,235.34h-1.95a.57.57,0,0,1-.57-.57.56.56,0,0,1,.57-.57h1.95a.56.56,0,0,1,.57.57A.57.57,0,0,1,196.22,235.34Z"/><path fill="#ffd471" d="M196.22,238.65h-1.95a.56.56,0,0,1-.57-.57.57.57,0,0,1,.57-.57h1.95a.57.57,0,0,1,.57.57A.56.56,0,0,1,196.22,238.65Z"/><path fill="#2a817d" d="M196.22,242h-1.95a.56.56,0,0,1-.57-.57.57.57,0,0,1,.57-.57h1.95a.57.57,0,0,1,.57.57A.56.56,0,0,1,196.22,242Z"/><path fill="#4693b9" d="M196.22,245.28h-1.95a.58.58,0,0,1,0-1.15h1.95a.58.58,0,0,1,0,1.15Z"/><path fill="#ffd471" d="M196.22,248.58h-1.95a.57.57,0,1,1,0-1.13h1.95a.57.57,0,1,1,0,1.13Z"/><path fill="#2a817d" d="M196.22,251.9h-1.95a.57.57,0,0,1-.57-.57.56.56,0,0,1,.57-.57h1.95a.56.56,0,0,1,.57.57A.57.57,0,0,1,196.22,251.9Z"/><path fill="#ffd471" d="M239.08,279.85H176.91a1.21,1.21,0,0,1-1.22-1.19V245a1.21,1.21,0,0,1,1.22-1.19h62.17A1.21,1.21,0,0,1,240.3,245v33.64A1.21,1.21,0,0,1,239.08,279.85Z"/><path fill="#fefefe" d="M363.28,209.37a.29.29,0,0,1-.29.29H306.55a.28.28,0,0,1-.28-.29v-.28a.28.28,0,0,1,.28-.29H363a.29.29,0,0,1,.29.29Zm0,2a.29.29,0,0,0-.29-.29h-45.8a.29.29,0,0,0-.28.29v.29a.29.29,0,0,0,.28.28H363a.29.29,0,0,0,.29-.28Zm-55.37,2.27a.29.29,0,0,0-.29-.28H280.71a.29.29,0,0,0-.29.28v.29a.29.29,0,0,0,.29.29h26.91a.29.29,0,0,0,.29-.29Zm-3.24-4.54a.29.29,0,0,0-.29-.29H280.71a.29.29,0,0,0-.29.29v.28a.29.29,0,0,0,.29.29h23.67a.29.29,0,0,0,.29-.29Zm10.76,2.27a.29.29,0,0,0-.28-.29H280.71a.29.29,0,0,0-.29.29v.29a.29.29,0,0,0,.29.28h34.44a.29.29,0,0,0,.28-.28Z"/><path fill="#fefefe" d="M363.28,224.1a.29.29,0,0,1-.29.29H309.76a.29.29,0,0,1-.28-.29v-.29a.29.29,0,0,1,.28-.28H363a.29.29,0,0,1,.29.28Zm0,2a.29.29,0,0,0-.29-.29H280.71a.29.29,0,0,0-.29.29v.29a.29.29,0,0,0,.29.28H363a.29.29,0,0,0,.29-.28Zm-55.37-2.28a.29.29,0,0,0-.29-.28H280.71a.29.29,0,0,0-.29.28v.29a.29.29,0,0,0,.29.29h26.91a.29.29,0,0,0,.29-.29Zm55.37,2.28a.29.29,0,0,0-.29-.29H280.71a.29.29,0,0,0-.29.29v.29a.29.29,0,0,0,.29.28H363a.29.29,0,0,0,.29-.28Zm-45.59,2.27a.29.29,0,0,0-.28-.28h-36.7a.29.29,0,0,0-.29.28v.29a.3.3,0,0,0,.29.29h36.7a.3.3,0,0,0,.28-.29Z"/><path fill="#fefefe" d="M363.28,238.83a.29.29,0,0,1-.29.29H343.65a.29.29,0,0,1-.29-.29v-.29a.29.29,0,0,1,.29-.28H363a.29.29,0,0,1,.29.28Zm0,2a.29.29,0,0,0-.29-.29H303.7a.29.29,0,0,0-.29.29v.28a.29.29,0,0,0,.29.29H363a.29.29,0,0,0,.29-.29Zm-21.56-2.28a.29.29,0,0,0-.28-.28H280.71a.29.29,0,0,0-.29.28v.29a.29.29,0,0,0,.29.29h60.73a.29.29,0,0,0,.28-.29Zm-40,2.28a.29.29,0,0,0-.28-.29H280.71a.29.29,0,0,0-.29.29v.28a.29.29,0,0,0,.29.29h20.77a.29.29,0,0,0,.28-.29Zm4,2.27a.27.27,0,0,0-.28-.28H280.71a.28.28,0,0,0-.29.28v.29a.28.28,0,0,0,.29.28h24.77a.27.27,0,0,0,.28-.28Z"/><path fill="#fefefe" d="M267.73,207.43a.64.64,0,0,0-.64.64v6.86a.64.64,0,0,0,.64.64h6.86a.64.64,0,0,0,.64-.64v-6.86a.64.64,0,0,0-.64-.64Zm6.86,8.57h-6.86a1.06,1.06,0,0,1-1.07-1.07v-6.86a1.07,1.07,0,0,1,1.07-1.07h6.86a1.07,1.07,0,0,1,1.07,1.07v6.86A1.06,1.06,0,0,1,274.59,216Z"/><path fill="#4693b9" d="M273.48,208.47h-4.63a.72.72,0,0,0-.72.72v4.63a.72.72,0,0,0,.72.72h4.63a.72.72,0,0,0,.72-.72v-4.63A.72.72,0,0,0,273.48,208.47Z"/><path fill="#fefefe" d="M267.73,222.16a.64.64,0,0,0-.64.64v6.86a.64.64,0,0,0,.64.64h6.86a.64.64,0,0,0,.64-.64V222.8a.64.64,0,0,0-.64-.64Zm6.86,8.57h-6.86a1.07,1.07,0,0,1-1.07-1.07V222.8a1.07,1.07,0,0,1,1.07-1.07h6.86a1.07,1.07,0,0,1,1.07,1.07v6.86A1.07,1.07,0,0,1,274.59,230.73Z"/><rect width="6.07" height="6.07" x="268.13" y="223.2" fill="#4693b9" rx=".72"/><path fill="#fefefe" d="M267.73,236.89a.64.64,0,0,0-.64.64v6.86a.64.64,0,0,0,.64.64h6.86a.64.64,0,0,0,.64-.64v-6.86a.64.64,0,0,0-.64-.64Zm6.86,8.57h-6.86a1.07,1.07,0,0,1-1.07-1.07v-6.86a1.07,1.07,0,0,1,1.07-1.07h6.86a1.07,1.07,0,0,1,1.07,1.07v6.86A1.07,1.07,0,0,1,274.59,245.46Z"/><path fill="#4693b9" d="M273.48,237.92h-4.63a.73.73,0,0,0-.72.73v4.63a.72.72,0,0,0,.72.72h4.63a.73.73,0,0,0,.72-.72v-4.63A.73.73,0,0,0,273.48,237.92Z"/><path fill="#fefefe" d="M308.41,279.85h-18.2a1.79,1.79,0,0,1-1.78-1.79V261.13a1.79,1.79,0,0,1,1.78-1.79h18.2a1.79,1.79,0,0,1,1.78,1.79v16.93A1.79,1.79,0,0,1,308.41,279.85Zm-18.2-19.79a1.07,1.07,0,0,0-1.07,1.07v16.93a1.07,1.07,0,0,0,1.07,1.07h18.2a1.07,1.07,0,0,0,1.07-1.07V261.13a1.07,1.07,0,0,0-1.07-1.07Z"/><path fill="#fefefe" d="M339.72,279.85H321.53a1.79,1.79,0,0,1-1.78-1.79V261.13a1.79,1.79,0,0,1,1.78-1.79h18.19a1.79,1.79,0,0,1,1.79,1.79v16.93A1.79,1.79,0,0,1,339.72,279.85Zm-18.19-19.79a1.07,1.07,0,0,0-1.07,1.07v16.93a1.07,1.07,0,0,0,1.07,1.07h18.19a1.07,1.07,0,0,0,1.08-1.07V261.13a1.07,1.07,0,0,0-1.08-1.07Z"/><path fill="#2a817d" d="M294.77,267.13c0,3.47,3,7.86,4.25,9.31a.32.32,0,0,0,.57,0c1.3-1.45,4.26-5.84,4.26-9.31a4.54,4.54,0,0,0-9.08,0Zm2,0a2.55,2.55,0,1,1,2.55,2.56A2.55,2.55,0,0,1,296.76,267.14Z"/><path fill="#4693b9" d="M327.26,275.64c-.31,0-.63,0-.95,0a2.65,2.65,0,0,1-2.39-2.88,2.38,2.38,0,0,1,.17-.71,2.94,2.94,0,0,1,.27-.53.15.15,0,0,1,.11-.06l4-.26a.16.16,0,0,1,.11,0,2.73,2.73,0,0,1,.58,1.12,7,7,0,0,0,2.61-1.36h0l0,0a7.22,7.22,0,0,0,1.81-2.3,2.83,2.83,0,0,1-1-.78.15.15,0,0,1,0-.13l1-3.85a.16.16,0,0,1,.08-.1,2.41,2.41,0,0,1,.58-.17,2.32,2.32,0,0,1,.46,0H335a2.66,2.66,0,0,1,2.39,2.89,10.14,10.14,0,0,1-10.08,9.19Z"/><path fill="#bf7968" d="M254.51,333.54h5.63c0-.64-.07-1.28-.06-1.93a52.62,52.62,0,0,1,.55-6.65,26.88,26.88,0,0,1,1.47-6.21,23.36,23.36,0,0,0,1.08-3.25,8.57,8.57,0,0,0,.16-2.62h-8a11.66,11.66,0,0,1-.32,4.67c-.28.82-.58,1.62-.79,2.47a19,19,0,0,0-.41,2.49,47,47,0,0,0,.64,10.59Z"/><path fill="#ffd471" d="M260.22,333.54l.18-1.66a45.22,45.22,0,0,1-6.36-.07s.07.78.16,1.73Z"/><path fill="#091317" d="M266.84,344.82a2.5,2.5,0,0,0-1.21-1.58c-1.09-.73-4.49-1.7-4.85-2a3.12,3.12,0,0,1-.79-2.53c.06-1.9.3-3.8.46-5.68a18,18,0,0,1-6.49-.08l.42,5.08a15.94,15.94,0,0,1,.07,2.49,17.51,17.51,0,0,1-.35,2.15,13.09,13.09,0,0,0-.32,2.16v.4c.45.46,1.53.42,2,.39a36.64,36.64,0,0,1,3.78-.16c1.66.11,3.29.37,5,.44a7.81,7.81,0,0,0,1.62-.07A.88.88,0,0,0,266.84,344.82Z"/><path fill="#bf7968" d="M244.88,333.54h5.63c0-.64-.07-1.28-.06-1.93A54.53,54.53,0,0,1,251,325a27.4,27.4,0,0,1,1.47-6.21,22.15,22.15,0,0,0,1.09-3.25,8.9,8.9,0,0,0,.16-2.62h-8a11.85,11.85,0,0,1-.33,4.67c-.28.82-.58,1.62-.79,2.47a19,19,0,0,0-.41,2.49,45.89,45.89,0,0,0,.64,10.59Z"/><path fill="#ffd471" d="M250.59,333.54l.18-1.66a45.22,45.22,0,0,1-6.36-.07s.07.78.16,1.73Z"/><path fill="#12252e" d="M257.21,344.82a2.54,2.54,0,0,0-1.21-1.58c-1.08-.73-4.49-1.7-4.85-2a3.16,3.16,0,0,1-.8-2.53c.07-1.9.31-3.8.47-5.68a18,18,0,0,1-6.49-.08l.42,5.08a12.06,12.06,0,0,1-.29,4.64,13.07,13.07,0,0,0-.31,2.16v.4c.45.46,1.53.42,2,.39a36.64,36.64,0,0,1,3.78-.16c1.66.11,3.29.37,4.95.44a7.81,7.81,0,0,0,1.62-.07A.88.88,0,0,0,257.21,344.82Z"/><path fill="#bf7968" d="M282.27,250.47c-.36-.37-.77.48-.92.68a5.07,5.07,0,0,1-1.71,1.34c.19-.22.39-.45.6-.66a6.51,6.51,0,0,0,.51-.54,4.2,4.2,0,0,0,.43-.74c.11-.23.25-.47.35-.71a.36.36,0,0,0,0-.4c-.25-.26-.63,0-.85.27a.62.62,0,0,0,0-.38c-.19-.44-.57,0-.77.16-.6.56-1.21,1.13-1.85,1.66a12.53,12.53,0,0,1-1,.79c-.24.16-.49.43-.35-.16a2.26,2.26,0,0,1,.12-.31c.06-.13.12-.25.17-.38s.08-.79-.31-.72c-.21,0-.43.38-.55.53a6.92,6.92,0,0,0-.59.83,3.16,3.16,0,0,0-.32,1.63,6.21,6.21,0,0,1-.34,2.3,5.9,5.9,0,0,1-.57,1.12,11.11,11.11,0,0,0-.67,1s2.58,1.12,3.18,1.29c.12-1.25,1.33-2.09,2.11-3a10.77,10.77,0,0,1,1.17-1.17,7.45,7.45,0,0,0,1.28-1,9.06,9.06,0,0,0,.79-1.34c.09-.16.3-.51,0-.61s-.57.31-.72.43a.57.57,0,0,1-.14.13c.14-.16.28-.32.41-.49S282.65,250.87,282.27,250.47Z"/><path fill="#4693b9" d="M277.61,258.2a11.35,11.35,0,0,1-3.61-1.77c-1.81,1.79-3.67,4.49-5.56,6.19s-3.11-.24-5.65-2.52c-1.81-1.62-3.34-3.2-4.86-3.83-3-1.25-5.3-.9-8-1.09-4.62-.31-7.46-.38-10.17,2-3,2.55-5.36,9.11-5.83,10.59s-1.12,2.88-1.6,4.36c-.72,2.2-1.16,4.12.27,6.12.84,1.18,6.84,5.54,8.52,6.6a20.14,20.14,0,0,1,1.5-2.37c-.62,4.67-.86,9.37-1.1,14.07l-.84,16.14c8.73,3.4,18.12,1.3,26.87,0Q266.24,302,264,291.48q-1.11-5.28-2.44-10.51c-.89-3.47-2.26-6-1.84-9.6a15.27,15.27,0,0,0,0-5c.38.24,1.7.93,2.08,1.16,2,1.23,4.32,2.26,6.72,2s3.79-2.58,5.17-4.36C275.43,263,276,260.47,277.61,258.2ZM243.2,281.34c-1-1.16-5.2-6.26-5.86-6.8,1.73-2.37,3.95-5.34,4.64-8.18a64.87,64.87,0,0,1,2.06,7s.26,1.89.26,1.91A38.19,38.19,0,0,1,243.2,281.34Z"/><path fill="#bf7968" d="M246.08,250.55c-.09-.85-.19-1.42-.19-1.42a2,2,0,0,0,1.63-1.51s1-7.13,3.47-7.4c2.87-.31,4.19.46,4.77,3.26a3.33,3.33,0,0,0,1.49,2.13.38.38,0,0,1-.28.65l-.42,0a.16.16,0,0,0-.16.18,9,9,0,0,1-.22,2.26c-.39,1.59-.18,3.26-3,3.22-.32,0-.63,0-.94-.06a28.28,28.28,0,0,0,.71,4.8c.06.3.12.64.12.64-1,1.32-4.34.82-5.78-.5-.58-.53-1.46-1.36-1.42-1.52A15.79,15.79,0,0,0,246.08,250.55Z"/><path fill="#29566d" d="M232.44,311.39a5.26,5.26,0,0,1-1.16-7.35l30.14-41.45a1.38,1.38,0,0,1,1.92-.3l6.29,4.57a1.38,1.38,0,0,1,.31,1.92l-30.15,41.45A5.25,5.25,0,0,1,232.44,311.39Z"/><path fill="#2f627c" d="M269.88,267l-3.39-2.47-3.39-2.46s27.64-38.4,32-38.91c1-.12,1.27.3,1.27.3s.47.08.67,1.11C297.89,228.91,269.88,267,269.88,267Z"/><path fill="#254d62" d="M295.73,223.19l1-1.35a.68.68,0,0,1,1-.15.68.68,0,0,1,.15.95l-1,1.36Z"/><rect width="2.07" height="10.52" x="263.2" y="262.41" fill="#254d62" transform="rotate(-53.96 264.245 267.678)"/><path fill="#254d62" d="M241.31,312.66a1,1,0,0,1-.21-1.33l.62-.84-1-.75a.46.46,0,0,1-.61.07l-8.49-6.18a.46.46,0,0,1-.11-.64l1.35-1.85a.46.46,0,0,1,.64-.1l8.5,6.18a.45.45,0,0,1,.12.6l1,.75,19.58-26.9-.28-1.74a1,1,0,0,1,.17-.71l.59-.81a.93.93,0,0,1,.62-.38l1.14-.18a.94.94,0,0,1,.7.17.9.9,0,0,1,.38.61.94.94,0,0,1-.79,1.09l-.75.12-.13.18.28,1.74a.94.94,0,0,1-.17.71l-21.81,30A1,1,0,0,1,241.31,312.66Z"/><path fill="#bf7968" d="M247.31,290.05c.43-.3-.33-.84-.5-1a5.14,5.14,0,0,1-1-1.92c.19.23.38.46.55.7a6.85,6.85,0,0,0,.45.61,4.9,4.9,0,0,0,.65.54c.22.15.42.33.64.46a.37.37,0,0,0,.4.05c.3-.2.08-.62-.12-.88a.55.55,0,0,0,.38,0c.47-.1.12-.55,0-.78-.45-.7-.9-1.39-1.32-2.1-.17-.3-.47-.79-.61-1.11s-.35-.55.21-.31a1.58,1.58,0,0,1,.29.17,3,3,0,0,0,.35.23c.22.11.75.21.75-.18,0-.21-.3-.5-.43-.64a6,6,0,0,0-.71-.72,3.2,3.2,0,0,0-1.56-.59,6.24,6.24,0,0,1-2.21-.72,5.28,5.28,0,0,1-1-.76,9.26,9.26,0,0,0-.85-.81s-1.54,2.35-1.8,2.91c1.21.34,1.84,1.67,2.56,2.59a10.55,10.55,0,0,1,1,1.34,7.12,7.12,0,0,0,.79,1.43,9.62,9.62,0,0,0,1.19,1c.14.12.45.38.6.12s-.21-.63-.31-.79l-.1-.16a6.4,6.4,0,0,0,.42.49C246.16,289.51,246.87,290.36,247.31,290.05Z"/><path fill="#4693b9" d="M243.63,281.63a7.09,7.09,0,0,0-1.54,1.47,8.35,8.35,0,0,0-1,1.71l-2.1-1.44,2.43-4.07Z"/><path fill="#12252e" d="M240.76,243.8a2,2,0,0,1,1.63-.29,5.48,5.48,0,0,1,.18-3.25,7.06,7.06,0,0,1,4-3.82c3.87-1.49,4.22.31,6.34.21.77,0,1.44-.33,2.14.14a2.69,2.69,0,0,1,1.11,2.19c0,2.81-2.23,2.17-3.4,3.17a6.59,6.59,0,0,0-1.55,2.41c-.39,1.13-1.63,1.58-2.14,2.65s-.72,2.84-1.66,3.68c-.73.67-2.46,0-3.09-.82a2.59,2.59,0,0,1-2,.28c-1.07-.24-1.88-1.49-2.36-3A3.15,3.15,0,0,1,240.76,243.8Z"/><path fill="#ffa18a" d="M453,336.07l-6.09-2.25c.3-.69.59-1.37.84-2.08a60.88,60.88,0,0,0,2.08-7.42,31.59,31.59,0,0,0,.9-7.31,27.49,27.49,0,0,1,.12-3.95,10.64,10.64,0,0,1,.88-2.91l9.5,1.26c-.74,1.66-2.29,5.29-2.35,7.14,0,1,0,2-.14,3a20.07,20.07,0,0,1-.56,2.86c-1,4-3,7.61-4.93,11.2C453.14,335.77,453.05,335.92,453,336.07Z"/><path fill="#ffd471" d="M446.79,333.79c.16-.63.31-1.25.48-1.88a51.92,51.92,0,0,0,6.9,2.47s-.38.82-.86,1.82Z"/><path fill="#12252e" d="M435.1,343.34a2.88,2.88,0,0,1,1.94-1.23c1.47-.35,5.55-.05,6.07-.25a3.7,3.7,0,0,0,1.88-2.43c.68-2.07,1.19-4.23,1.77-6.33a20.83,20.83,0,0,0,7.06,2.52s-1.65,3.55-2.49,5.33a18.53,18.53,0,0,0-1.08,2.66,21.27,21.27,0,0,0-.48,2.48,12.74,12.74,0,0,1-.53,2.45c0,.15-.15.43-.15.43-.67.32-1.82-.14-2.36-.37a38.58,38.58,0,0,0-4-1.7c-1.83-.55-3.71-.91-5.53-1.51a9.65,9.65,0,0,1-1.73-.72A1,1,0,0,1,435.1,343.34Z"/><path fill="#ee9681" d="M422.24,279.28a6,6,0,0,0,.74,0,.78.78,0,0,1-.22,0c-.21,0-.79.06-.89.34s.34.39.55.42a10.49,10.49,0,0,0,1.76.24,8.89,8.89,0,0,0,1.82-.42,12.93,12.93,0,0,1,1.86-.22c1.33-.09,2.94-.57,4.14.2.27-.65,1.11-3.75,1.09-3.75a11.9,11.9,0,0,0-1.34-.09,6.29,6.29,0,0,1-1.41-.28,7,7,0,0,1-2.28-1.32,3.57,3.57,0,0,0-1.69-.85,6.45,6.45,0,0,0-1.16-.06c-.22,0-.68,0-.86.12-.33.29.16.67.42.77a4,4,0,0,0,.46.13c.06,0,.34.05.36.11l-.09.42-.18,0a5.64,5.64,0,0,1-1.23.28c-.92.2-1.85.34-2.78.49-.31.05-1,.1-.69.57a.72.72,0,0,0,.33.29c-.37,0-.9.16-.84.57,0,.18.19.25.34.29a8.79,8.79,0,0,0,.89.19,4.37,4.37,0,0,0,1,.15,7.89,7.89,0,0,0,.85-.08c.34,0,.68,0,1-.08a5.6,5.6,0,0,1-2.41.59c-.29,0-1.33-.23-1.26.35S421.83,279.27,422.24,279.28Z"/><path fill="#25716d" d="M431.81,276a88.51,88.51,0,0,0,11.39-.7,12.09,12.09,0,0,0,5.63-1.82c1-.77,4.17-5.16,4.46-5.59l3.93,5.84a62.72,62.72,0,0,1-4.39,5.14c-2.35,2.05-6.41,2-8.78,2.08-1.59.05-10.39-.09-13.23-1.28A8.21,8.21,0,0,0,431.81,276Z"/><rect width="3.06" height="18.75" x="413.12" y="252.26" fill="#2f627c" transform="rotate(-29.84 414.726 261.657)"/><path fill="#254d62" d="M410.7,254.76A16,16,0,1,1,416.58,233,16,16,0,0,1,410.7,254.76Zm-15.09-26.25a14.33,14.33,0,1,0,19.55,5.28A14.35,14.35,0,0,0,395.61,228.51Z"/><path fill="#29566d" d="M433.69,294.66h0a3.21,3.21,0,0,1-4.44-1.29L416.33,268.7a.5.5,0,0,1,.19-.67l2.67-1.53a.5.5,0,0,1,.68.16l14.93,23.49A3.21,3.21,0,0,1,433.69,294.66Z"/><path fill="#bfe4fd" d="M415.16,233.79a14.32,14.32,0,1,1-19.55-5.28A14.35,14.35,0,0,1,415.16,233.79Z" opacity=".3"/><path d="M400.28,229.12a3.33,3.33,0,0,1-.73.27,10.34,10.34,0,0,0-1.49.65c-.6.33-1.37.81-1.85,1.15a13.15,13.15,0,0,0-4.87,7.52,15.27,15.27,0,0,0-.12,4.64,18.34,18.34,0,0,0,1.14,3.68c.1.22.21.44.31.67s-.09.32-.21.17a10,10,0,0,1-1.12-1.64,11.56,11.56,0,0,1-1.29-7.73,12.71,12.71,0,0,1,3.6-6.7,14.61,14.61,0,0,1,2.84-2,9.29,9.29,0,0,1,2.46-.89c.37-.09.76-.14,1.13-.2s.5.27.2.39Z" style="mix-blend-mode:screen" fill="#fff" opacity=".5"/><path fill="#ffa18a" d="M423.18,282.44h.73l-.21,0c-.21,0-.8,0-.9.32s.34.4.54.43a9.59,9.59,0,0,0,1.76.26,8.82,8.82,0,0,0,1.82-.39,13.19,13.19,0,0,1,1.87-.2c1.33-.07,2.95-.53,4.13.26.29-.65,1.16-3.74,1.15-3.74-.45-.09-.89-.06-1.33-.11a5.72,5.72,0,0,1-1.41-.3,6.78,6.78,0,0,1-2.27-1.34,3.46,3.46,0,0,0-1.68-.88,6.36,6.36,0,0,0-1.15-.08c-.22,0-.69-.06-.87.11-.34.29.15.67.41.78a4.61,4.61,0,0,0,.46.13c.06,0,.34.07.36.12s-.07.28-.1.41l-.18,0a5.62,5.62,0,0,1-1.23.27c-.93.18-1.85.32-2.79.45-.31,0-1,.08-.7.56a.66.66,0,0,0,.33.29c-.37,0-.91.16-.85.57,0,.17.19.25.34.3s.59.13.88.2a5.32,5.32,0,0,0,1,.15,5.83,5.83,0,0,0,.84-.07c.34,0,.69,0,1-.06a5.65,5.65,0,0,1-2.42.56c-.29,0-1.33-.26-1.26.33S422.77,282.42,423.18,282.44Z"/><path fill="#ffa18a" d="M474,334.27l-6.48.51c0-.75,0-1.5-.1-2.24a61.22,61.22,0,0,0-1.23-7.61,31.17,31.17,0,0,0-2.25-7,26.6,26.6,0,0,1-1.54-3.65,10.21,10.21,0,0,1-.42-3l9.21-.72a13.87,13.87,0,0,0,.8,5.35c.39.92.82,1.81,1.13,2.77a22.64,22.64,0,0,1,.7,2.84c.71,4,.43,8.17.21,12.24Z"/><path fill="#ffd471" d="M467.42,334.79c-.12-.64-.25-1.28-.35-1.91a51.25,51.25,0,0,0,7.31-.65s0,.9,0,2Z"/><path fill="#12252e" d="M460.81,348.35a2.87,2.87,0,0,1,1.25-1.92c1.19-.95,5-2.37,5.4-2.77a3.69,3.69,0,0,0,.69-3c-.25-2.18-.7-4.34-1-6.5a21,21,0,0,0,7.47-.67l0,5.88a18.34,18.34,0,0,0,.14,2.87,19.07,19.07,0,0,0,.61,2.45,14.71,14.71,0,0,1,.55,2.45c0,.15,0,.46,0,.46-.48.57-1.72.62-2.3.64a39.89,39.89,0,0,0-4.37.15c-1.9.27-3.76.73-5.66,1a9.14,9.14,0,0,1-1.87.07A1,1,0,0,1,460.81,348.35Z"/><path fill="#2a817d" d="M432.28,279.2a88.56,88.56,0,0,0,11.4-.7,11.9,11.9,0,0,0,5.63-1.82,37.16,37.16,0,0,0,4-4.78l4.37,5a62.17,62.17,0,0,1-4.38,5.13c-2.36,2.06-6.42,2-8.78,2.08-1.59.06-10.39-.09-13.24-1.28A8.07,8.07,0,0,0,432.28,279.2Z"/><path fill="#ffa18a" d="M465.88,253.31c.19-.87.36-1.46.36-1.46a2.08,2.08,0,0,1-1.52-1.73s-.25-7.49-2.72-8c-2.94-.65-4.38,0-5.3,2.82a3.51,3.51,0,0,1-1.78,2,.39.39,0,0,0,.21.7l.43.08a.19.19,0,0,1,.15.2,9.4,9.4,0,0,0,0,2.36c.22,1.69-.18,3.38,2.67,3.66.34,0,.67,0,1,0l-1.47,5.52c.89,1.47,4.84-.52,5.88-.72a11.29,11.29,0,0,0,2.48-.88C466,256.23,465.58,254.66,465.88,253.31Z"/><path fill="#a55852" d="M466.61,255.52a4.61,4.61,0,0,0,1.33.57,2.05,2.05,0,0,0,2.24-1,2.87,2.87,0,0,0,.34-2.39,2.79,2.79,0,0,0-2.18-2.2s2.43-1.49,2.29-5.53a7.82,7.82,0,0,0-2.94-5.74,8.23,8.23,0,0,0-4.93-1.49c-1.43.06-3.65.13-4.61,1.32a4,4,0,0,0,1,5.36c.37.26.86.39,1.13.78s.18.89.29,1.33a9.1,9.1,0,0,0,1.22,2.33,17,17,0,0,1,1,2.67,5.45,5.45,0,0,0,1.26,1.89,16.38,16.38,0,0,0,2.12,1.78C466.33,255.34,466.47,255.42,466.61,255.52Z"/><path fill="#2a817d" d="M467.92,277.4c-.62-2.12-.05-4.32.34-6.43a33.19,33.19,0,0,0,.73-5.69c0-3-.73-6.16-2.9-8.26a23.37,23.37,0,0,1-4,1.39,18.48,18.48,0,0,1-3.95-.13c-2.66,3.33-2.8,4.21-4.29,8,0,0-1.48,2.67-1.44,8.75,0,1.07.07,2.15.2,3.25.19,1.72.44,3.46.47,5.2a35.54,35.54,0,0,1-.45,5.74,204.31,204.31,0,0,1-4.8,21.86c0,.12,15.2,1.19,18.08,1.45,5.33.46,6.79-.13,11.6-2.17C476.77,300.15,468.42,279.1,467.92,277.4Z"/><path fill="#236b68" d="M452.73,272.93a66.55,66.55,0,0,0,4.34-5.54c.73-1,1.48-1.93,2.31-2.83a6.3,6.3,0,0,1,3-2,2.73,2.73,0,0,1,3.31,1.5c0,.07.13.05.11,0a2.62,2.62,0,0,0-2.07-1.66,4.26,4.26,0,0,0-3.16.94,15,15,0,0,0-2.65,2.81c-.8,1-1.55,2-2.31,3.06a40,40,0,0,1-3,3.66c0,.06,0,.14.08.09Z"/><path fill="#236b68" d="M453.17,282.29c2.12-1.43,4.24-2.87,6.23-4.48a30.78,30.78,0,0,0,5.46-5.42,5.13,5.13,0,0,0,1.21-3.76.06.06,0,0,0-.11,0,5,5,0,0,1-1.2,3.67,25.08,25.08,0,0,1-2.53,2.82,46.23,46.23,0,0,1-5.68,4.67c-1.13.81-2.28,1.6-3.43,2.37-.07.05,0,.14.05.1Z"/><path fill="#29566d" d="M547.17,338.56a.64.64,0,0,0,.74.53l.13,0a.64.64,0,0,0,.53-.74L529.85,225.7a.66.66,0,0,0-.75-.54l-.13,0a.66.66,0,0,0-.53.75Z"/><path fill="#29566d" d="M521.67,338.56a.65.65,0,0,0,.75.53l.13,0a.64.64,0,0,0,.53-.74L504.36,225.7a.66.66,0,0,0-.75-.54l-.13,0a.65.65,0,0,0-.53.75Z"/><rect width="25.8" height="1.42" x="520" y="324.72" fill="#29566d"/><path fill="#4693b9" d="M485.81,338.56a.65.65,0,0,1-.75.53l-.13,0a.64.64,0,0,1-.53-.74L503.12,225.7a.66.66,0,0,1,.75-.54l.13,0a.65.65,0,0,1,.53.75Z"/><path fill="#4693b9" d="M511.3,338.56a.64.64,0,0,1-.74.53l-.14,0a.64.64,0,0,1-.53-.74L528.61,225.7a.66.66,0,0,1,.75-.54l.13,0a.65.65,0,0,1,.53.75Z"/><rect width="25.8" height="1.42" x="499.59" y="248.67" fill="#4693b9"/><rect width="25.8" height="1.43" x="497.1" y="263.88" fill="#4693b9"/><rect width="25.8" height="1.43" x="494.62" y="279.09" fill="#4693b9"/><rect width="25.81" height="1.43" x="492.14" y="294.29" fill="#4693b9"/><rect width="25.8" height="1.43" x="489.65" y="309.5" fill="#4693b9"/><rect width="25.8" height="1.42" x="487.17" y="324.72" fill="#4693b9"/><path fill="#4693b9" d="M533.3,226.38a1.3,1.3,0,0,1-1.29,1.3H501.1a1.3,1.3,0,0,1-1.3-1.3V224.7a1.3,1.3,0,0,1,1.3-1.3H532a1.3,1.3,0,0,1,1.29,1.3Z"/><path fill="#a2ddd0" d="M533.49,341.78s-12.54-22.95-4.22-25.87c5.5-1.93,7.29,19.53,7.29,19.53s.49-23.79,7.78-20.74c5.51,2.29-1.85,19.47-1.85,19.47s8-6.48,9-2.41c1.6,6.46-7.59,10.13-7.59,10.13Z"/><path fill="#e0fbf0" d="M536.06,341.8l-6.06-19a.2.2,0,0,1,.13-.25.21.21,0,0,1,.25.13l6.1,19.14Z"/><path fill="#e0fbf0" d="M537.64,341.82,542,321.1a.2.2,0,1,1,.39.08l-4.33,20.64Z"/><path fill="#e0fbf0" d="M539.88,341.85l8.26-7.11a.2.2,0,0,1,.26.3l-7.92,6.82Z"/><path fill="#ee9681" d="M484.56,184.78a5.7,5.7,0,0,1-.16.55,4.49,4.49,0,0,1-1,2,5,5,0,0,0-1.12,1.07c-.17.3-.24.62.1.81a1.25,1.25,0,0,0,1.22-.15c-.14.26-.23.59.1.73s1-.16,1.41-.41a.55.55,0,0,0,0,.74,1,1,0,0,0,.91.08c.15,0,.35-.2.48-.17s.18.18.29.22c.42.11.76-.27,1-.52A7.26,7.26,0,0,0,489.6,187c.19-.61.19-1.27.38-1.88a13,13,0,0,1,.95-1.71c-.81-.58-2.15-1.51-3.24-2.22a2.93,2.93,0,0,1-1.87,1.58,8.52,8.52,0,0,0-2,.54,6,6,0,0,0-1.49,1.43c-.2.25-.51.68-.16.95s.92-.18,1.22-.37.65-.39,1-.56S484.61,184.53,484.56,184.78Z"/><path fill="#4693b9" d="M471.6,193.81l-1-.23a.72.72,0,0,1-.53-.72s0-.32,0-.78,0-.78,0-.78a.71.71,0,0,1,.53-.72l1-.24a.63.63,0,0,0,.48-.71l-.17-.91a.65.65,0,0,0-.7-.51l-1,.11a.75.75,0,0,1-.77-.5l-.55-1.47a.72.72,0,0,1,.27-.86L470,185a.63.63,0,0,0,.2-.83l-.47-.8a.65.65,0,0,0-.84-.24l-.89.43a.78.78,0,0,1-.9-.21l-1-1.2a.74.74,0,0,1-.05-.9l.59-.78a.62.62,0,0,0-.1-.85l-.72-.59a.66.66,0,0,0-.88.05l-.68.7a.77.77,0,0,1-.92.1l-1.39-.78a.74.74,0,0,1-.36-.83l.28-.93a.63.63,0,0,0-.4-.76l-.88-.32a.65.65,0,0,0-.8.34l-.4.89a.78.78,0,0,1-.83.4l-1.57-.26a.75.75,0,0,1-.63-.66l-.07-1a.64.64,0,0,0-.64-.59h-.94a.65.65,0,0,0-.64.59l-.06,1a.76.76,0,0,1-.63.66l-1.58.26a.76.76,0,0,1-.82-.4l-.4-.89a.66.66,0,0,0-.81-.34l-.88.32a.63.63,0,0,0-.4.76l.28.93a.74.74,0,0,1-.36.83l-1.38.78a.77.77,0,0,1-.92-.1l-.69-.7a.65.65,0,0,0-.87-.05l-.72.59a.61.61,0,0,0-.1.85l.58.78a.72.72,0,0,1,0,.9l-1,1.2a.78.78,0,0,1-.9.21l-.89-.43a.65.65,0,0,0-.84.24l-.46.8a.62.62,0,0,0,.19.83l.83.54a.73.73,0,0,1,.26.86l-.54,1.47a.77.77,0,0,1-.77.5l-1-.11a.66.66,0,0,0-.7.51l-.17.91a.63.63,0,0,0,.48.71l1,.24a.72.72,0,0,1,.54.72s0,.32,0,.78,0,.78,0,.78a.73.73,0,0,1-.54.72l-1,.23a.65.65,0,0,0-.48.72l.17.91a.66.66,0,0,0,.7.51l1-.11a.77.77,0,0,1,.77.5l.54,1.46a.74.74,0,0,1-.26.87l-.83.53a.63.63,0,0,0-.19.84l.46.79a.67.67,0,0,0,.84.25l.89-.43a.77.77,0,0,1,.9.21l1,1.19a.72.72,0,0,1,0,.9l-.58.79a.61.61,0,0,0,.1.85l.72.59a.66.66,0,0,0,.87-.05l.69-.7a.79.79,0,0,1,.92-.11l1.38.79a.73.73,0,0,1,.36.83l-.28.93a.63.63,0,0,0,.4.76l.88.31a.65.65,0,0,0,.81-.33l.4-.89a.76.76,0,0,1,.82-.41l1.58.27a.75.75,0,0,1,.63.66l.06,1a.65.65,0,0,0,.64.58h.94a.64.64,0,0,0,.64-.58l.07-1a.74.74,0,0,1,.63-.66l1.57-.27a.79.79,0,0,1,.83.41l.4.89a.64.64,0,0,0,.8.33l.88-.31a.63.63,0,0,0,.4-.76l-.28-.93a.73.73,0,0,1,.36-.83l1.39-.79a.79.79,0,0,1,.92.11l.68.7a.67.67,0,0,0,.88.05l.72-.59a.62.62,0,0,0,.1-.85L466,203a.74.74,0,0,1,.05-.9l1-1.19a.77.77,0,0,1,.9-.21l.89.43a.66.66,0,0,0,.84-.25l.47-.79a.65.65,0,0,0-.2-.84l-.82-.53a.73.73,0,0,1-.27-.87l.55-1.46a.75.75,0,0,1,.77-.5l1,.11a.65.65,0,0,0,.7-.51l.17-.91A.65.65,0,0,0,471.6,193.81ZM456,180.24a.37.37,0,0,1,.14-.29.38.38,0,0,1,.27-.1h0a12.65,12.65,0,0,1,8.95,5.05.39.39,0,0,1,.07.31.45.45,0,0,1-.2.27l-1.77,1a.36.36,0,0,1-.2.06.4.4,0,0,1-.32-.17,9.86,9.86,0,0,0-6.62-3.73.4.4,0,0,1-.36-.39Zm-11,4.66a12.69,12.69,0,0,1,9-5.05h0a.4.4,0,0,1,.28.1.39.39,0,0,1,.13.29v2a.39.39,0,0,1-.36.39,9.84,9.84,0,0,0-6.61,3.73.42.42,0,0,1-.33.17.36.36,0,0,1-.2-.06l-1.77-1a.4.4,0,0,1-.19-.27A.39.39,0,0,1,444.94,184.9Zm-.68,12.41a.54.54,0,0,1-.21.05.25.25,0,0,1-.12,0,.4.4,0,0,1-.25-.21,12,12,0,0,1,0-10.1.42.42,0,0,1,.25-.22h.12a.41.41,0,0,1,.21,0l1.76,1a.39.39,0,0,1,.17.5,9.44,9.44,0,0,0,0,7.47.39.39,0,0,1-.17.5Zm10.08,6.6a.42.42,0,0,1-.13.3.4.4,0,0,1-.28.1h0a12.69,12.69,0,0,1-9-5.05.4.4,0,0,1-.06-.32.38.38,0,0,1,.19-.26l1.77-1a.36.36,0,0,1,.2-.06.44.44,0,0,1,.33.16,9.81,9.81,0,0,0,6.61,3.74.39.39,0,0,1,.36.39Zm.81-4.31a7.52,7.52,0,1,1,7.7-7.52A7.61,7.61,0,0,1,455.15,199.6Zm10.21-.34a12.65,12.65,0,0,1-8.95,5.05h0a.38.38,0,0,1-.27-.1.39.39,0,0,1-.14-.3v-2a.4.4,0,0,1,.36-.39,9.83,9.83,0,0,0,6.62-3.74.42.42,0,0,1,.32-.16.36.36,0,0,1,.2.06l1.77,1a.43.43,0,0,1,.2.26A.41.41,0,0,1,465.36,199.26Zm1.26-2.13a.41.41,0,0,1-.24.21.3.3,0,0,1-.13,0,.46.46,0,0,1-.2-.05l-1.77-1a.39.39,0,0,1-.17-.5,9.33,9.33,0,0,0,0-7.47.39.39,0,0,1,.17-.5l1.77-1a.36.36,0,0,1,.2-.06l.13,0a.43.43,0,0,1,.24.22,12,12,0,0,1,0,10.1Z"/><path fill="#98d4fc" d="M486.7,209.4h-.84a.52.52,0,0,1-.49-.39l-.27-1a.5.5,0,0,1,.23-.58l.72-.41a.41.41,0,0,0,.15-.55l-1-1.7a.41.41,0,0,0-.56-.15l-.72.41a.56.56,0,0,1-.64-.1l-.74-.73a.52.52,0,0,1-.1-.62l.42-.71a.4.4,0,0,0-.15-.54l-1.74-1a.43.43,0,0,0-.57.15l-.41.71a.55.55,0,0,1-.6.22l-1-.26a.53.53,0,0,1-.4-.49v-.81a.41.41,0,0,0-.41-.41h-2a.42.42,0,0,0-.42.41v.81a.52.52,0,0,1-.4.49l-1,.26a.54.54,0,0,1-.6-.22l-.42-.71a.42.42,0,0,0-.56-.15l-1.74,1a.38.38,0,0,0-.15.54l.42.71a.53.53,0,0,1-.1.62l-.75.73a.55.55,0,0,1-.63.1l-.72-.41a.41.41,0,0,0-.56.15l-1,1.7a.4.4,0,0,0,.15.55l.72.41a.5.5,0,0,1,.23.58l-.27,1a.54.54,0,0,1-.5.39h-.83a.42.42,0,0,0-.42.4v2a.41.41,0,0,0,.42.4h.83a.53.53,0,0,1,.5.4l.27,1a.5.5,0,0,1-.23.58l-.72.41a.4.4,0,0,0-.15.55l1,1.7a.41.41,0,0,0,.56.15l.72-.41a.55.55,0,0,1,.63.1l.75.73a.52.52,0,0,1,.1.61l-.42.71a.39.39,0,0,0,.15.55l1.74,1a.4.4,0,0,0,.56-.14l.42-.71a.54.54,0,0,1,.6-.22l1,.26a.52.52,0,0,1,.4.49v.81a.42.42,0,0,0,.42.41h2a.41.41,0,0,0,.41-.41v-.81a.53.53,0,0,1,.4-.49l1-.26a.55.55,0,0,1,.6.22l.41.71a.42.42,0,0,0,.57.14l1.74-1a.41.41,0,0,0,.15-.55l-.42-.71a.5.5,0,0,1,.1-.61l.74-.73a.56.56,0,0,1,.64-.1l.72.41a.41.41,0,0,0,.56-.15l1-1.7a.41.41,0,0,0-.15-.55l-.72-.41a.5.5,0,0,1-.23-.58l.27-1a.52.52,0,0,1,.49-.4h.84a.41.41,0,0,0,.41-.4v-2A.42.42,0,0,0,486.7,209.4Zm-2.43,1.14H483a6.19,6.19,0,0,0-.73-2.68l1.11-.63A7.28,7.28,0,0,1,484.27,210.54Zm-8,6a5.86,5.86,0,0,1-2.48-.66,2.46,2.46,0,0,1-.45-.25,5.91,5.91,0,0,1-1.82-1.77c-.09-.14-.17-.29-.25-.43a5.76,5.76,0,0,1-.67-2.43v-.5a5.72,5.72,0,0,1,.67-2.43c.08-.15.16-.29.25-.43a5.91,5.91,0,0,1,1.82-1.77,3.3,3.3,0,0,1,.45-.26,6,6,0,0,1,2.48-.65h.51a6.08,6.08,0,0,1,2.48.65c.15.08.3.16.45.26a5.88,5.88,0,0,1,1.81,1.77c.09.14.18.28.26.43a5.71,5.71,0,0,1,.66,2.43,2,2,0,0,1,0,.25,2.09,2.09,0,0,1,0,.25,5.75,5.75,0,0,1-.66,2.43l-.26.43a5.88,5.88,0,0,1-1.81,1.77,3.37,3.37,0,0,1-.45.25,5.94,5.94,0,0,1-2.48.66h-.51Zm6.82-9.79-1.12.63a6.31,6.31,0,0,0-2-1.95l.64-1.09A7.72,7.72,0,0,1,483.11,206.79Zm-2.93-2.67-.64,1.09a6.66,6.66,0,0,0-2.74-.71v-1.26A7.81,7.81,0,0,1,480.18,204.12Zm-3.89-.88v1.26a6.58,6.58,0,0,0-2.74.71l-.65-1.09A7.89,7.89,0,0,1,476.29,203.24Zm-3.83,1.14.64,1.09a6.21,6.21,0,0,0-2,1.95l-1.12-.63A7.62,7.62,0,0,1,472.46,204.38Zm-2.74,2.85,1.12.63a6.2,6.2,0,0,0-.74,2.68h-1.28A7.39,7.39,0,0,1,469.72,207.23Zm-.9,3.81h1.28a6.19,6.19,0,0,0,.74,2.67l-1.12.64A7.43,7.43,0,0,1,468.82,211Zm1.16,3.74,1.12-.63a6.24,6.24,0,0,0,2,2l-.64,1.09A7.65,7.65,0,0,1,470,214.78Zm2.92,2.68.65-1.1a6.44,6.44,0,0,0,2.74.72v1.26A8,8,0,0,1,472.9,217.46Zm3.9.88v-1.26a6.52,6.52,0,0,0,2.74-.72l.64,1.1A8,8,0,0,1,476.8,218.34Zm3.83-1.14-.64-1.09a6.34,6.34,0,0,0,2-2l1.12.63A7.75,7.75,0,0,1,480.63,217.2Zm2.73-2.85-1.11-.64A6.18,6.18,0,0,0,483,211h1.29A7.31,7.31,0,0,1,483.36,214.35Z"/><path fill="#ffd471" d="M489.35,190.62l-1.24-.15a.61.61,0,0,1-.48-.38l-.43-1a.61.61,0,0,1,.06-.6l.77-1a.4.4,0,0,0,0-.53l-1.54-1.51a.44.44,0,0,0-.54,0l-1,.76a.63.63,0,0,1-.61.06l-1.05-.43a.59.59,0,0,1-.38-.46l-.15-1.21a.42.42,0,0,0-.41-.36h-2.18a.41.41,0,0,0-.4.36l-.15,1.21a.63.63,0,0,1-.39.46l-1,.43a.63.63,0,0,1-.61-.06l-1-.76a.45.45,0,0,0-.55,0L474.48,187a.41.41,0,0,0,0,.53l.77,1a.59.59,0,0,1,.07.6l-.44,1a.59.59,0,0,1-.47.38l-1.25.15a.42.42,0,0,0-.36.39v2.13a.42.42,0,0,0,.36.4l1.25.15a.6.6,0,0,1,.47.37l.44,1a.57.57,0,0,1-.07.59l-.77,1a.41.41,0,0,0,0,.53l1.54,1.5a.43.43,0,0,0,.55,0l1-.75a.63.63,0,0,1,.61-.06l1,.42a.64.64,0,0,1,.39.47l.15,1.21a.41.41,0,0,0,.4.35h2.18a.42.42,0,0,0,.41-.35l.15-1.21a.61.61,0,0,1,.38-.47l1.05-.42a.63.63,0,0,1,.61.06l1,.75a.41.41,0,0,0,.54,0l1.54-1.5a.4.4,0,0,0,0-.53l-.77-1a.59.59,0,0,1-.06-.59l.43-1a.62.62,0,0,1,.48-.37l1.24-.15a.42.42,0,0,0,.36-.4V191A.42.42,0,0,0,489.35,190.62Zm-2.45,2.76-.35-.09a.21.21,0,0,1-.14-.23l.09-.63a.18.18,0,0,1,.19-.17h.36A5.92,5.92,0,0,1,486.9,193.38Zm-.54,1.38-.31-.17a.21.21,0,0,1-.08-.25l.25-.59a.2.2,0,0,1,.24-.12l.34.09A5.6,5.6,0,0,1,486.36,194.76Zm-10-2.68a4.91,4.91,0,1,1,4.91,4.79A4.86,4.86,0,0,1,476.33,192.08Zm-.65,1.64.34-.09a.2.2,0,0,1,.24.12l.25.59a.19.19,0,0,1-.08.25l-.31.17A5.6,5.6,0,0,1,475.68,193.72Zm-.1-2.94.35.09a.19.19,0,0,1,.14.22l-.08.63a.2.2,0,0,1-.2.18h-.35A5.92,5.92,0,0,1,475.58,190.78Zm.54-1.38.31.17a.19.19,0,0,1,.08.25l-.25.59a.2.2,0,0,1-.24.12l-.34-.09A5.08,5.08,0,0,1,476.12,189.4Zm-.68,2.86h.35a.2.2,0,0,1,.2.17l.08.63a.2.2,0,0,1-.14.23l-.35.09A5.92,5.92,0,0,1,475.44,192.26Zm11.36-1.82-.34.09a.2.2,0,0,1-.24-.12l-.25-.59a.21.21,0,0,1,.08-.25l.31-.17A5.08,5.08,0,0,1,486.8,190.44Zm-.11,1.46a.19.19,0,0,1-.19-.18l-.09-.63a.2.2,0,0,1,.14-.22l.35-.09a5.92,5.92,0,0,1,.15,1.12Zm-.51-2.81-.31.17a.19.19,0,0,1-.26-.06l-.4-.5a.2.2,0,0,1,0-.26l.26-.25A5.57,5.57,0,0,1,486.18,189.09Zm-1-1.15-.25.25a.21.21,0,0,1-.27,0l-.52-.39a.2.2,0,0,1-.06-.25l.18-.31A5.67,5.67,0,0,1,485.22,187.94Zm-1.23-.87-.18.31a.19.19,0,0,1-.25.07l-.61-.24a.19.19,0,0,1-.12-.23l.09-.34A6.64,6.64,0,0,1,484,187.07Zm-1.42-.52-.09.34a.21.21,0,0,1-.23.14l-.64-.08a.21.21,0,0,1-.19-.2v-.35A6.13,6.13,0,0,1,482.57,186.55Zm-1.51-.15v.35a.2.2,0,0,1-.18.2l-.65.08a.19.19,0,0,1-.22-.14l-.09-.34A6.13,6.13,0,0,1,481.06,186.4Zm-1.5.24.09.34a.18.18,0,0,1-.12.23l-.6.24a.2.2,0,0,1-.26-.07l-.17-.31A6.19,6.19,0,0,1,479.56,186.64Zm-1.38.61.18.31a.19.19,0,0,1-.06.25l-.51.39a.21.21,0,0,1-.27,0l-.26-.25A5.67,5.67,0,0,1,478.18,187.25Zm-1.17.94.25.25a.19.19,0,0,1,0,.26l-.39.5a.19.19,0,0,1-.26.06l-.32-.17A5.11,5.11,0,0,1,477,188.19Zm-.71,6.88.32-.17a.19.19,0,0,1,.26,0l.39.51a.19.19,0,0,1,0,.26L477,196A5,5,0,0,1,476.3,195.07Zm1,1.15.26-.25a.21.21,0,0,1,.27,0l.51.39a.19.19,0,0,1,.06.25l-.18.31A6.31,6.31,0,0,1,477.26,196.22Zm1.24.86.17-.3a.22.22,0,0,1,.26-.08l.6.25a.18.18,0,0,1,.12.23l-.09.34A6.22,6.22,0,0,1,478.5,197.08Zm1.42.53.09-.34a.18.18,0,0,1,.22-.14l.65.08a.2.2,0,0,1,.18.19v.35A6.13,6.13,0,0,1,479.92,197.61Zm1.5.14v-.35a.21.21,0,0,1,.19-.19l.64-.08a.2.2,0,0,1,.23.14l.09.34A6.13,6.13,0,0,1,481.42,197.75Zm1.5-.23-.09-.34A.19.19,0,0,1,483,197l.61-.25a.21.21,0,0,1,.25.08l.18.3A6.68,6.68,0,0,1,482.92,197.52Zm1.38-.61-.18-.31a.2.2,0,0,1,.06-.25l.52-.39a.21.21,0,0,1,.27,0l.25.25A6.31,6.31,0,0,1,484.3,196.91Zm1.18-.95-.26-.24a.2.2,0,0,1,0-.26l.4-.51a.19.19,0,0,1,.26,0l.31.17A5.49,5.49,0,0,1,485.48,196Z"/><path fill="#7fc8ef" d="M493,171.21c1.21-2,1.29-4,1.45-6.23h7.85s-.16,3.43-.23,3.39a12.44,12.44,0,0,1-2.08,5.9c-1.19,1.64-2.66,3.12-4,4.64-1.56,1.77-3.08,3.59-4.78,5.24A6.45,6.45,0,0,0,487,181.7a45.41,45.41,0,0,1,2.6-5.4C490.65,174.54,491.9,173,493,171.21Z"/><path fill="#29566d" d="M520.34,193.25a12.29,12.29,0,0,0-1,2.6,7.63,7.63,0,0,0,.2,3.42,32.15,32.15,0,0,1,.72,10.59h-7.08a52,52,0,0,0-2-9.81,38.68,38.68,0,0,1-1.43-3.7c-.74-2.67-.06-5.54.41-8.19.5-2.93,1.09-5.83,1.55-8.76a51.32,51.32,0,0,0,.68-9.18h13.2c1.72,6.05-.34,12.46-2.89,18C522,189.93,521.13,191.59,520.34,193.25Z"/><path fill="#091317" d="M504.92,222.47a3.1,3.1,0,0,1,1.49-1.94c1.33-.91,5.51-2.09,6-2.49a3.9,3.9,0,0,0,1-3.12c-.08-2.33-.38-4.66-.57-7a22,22,0,0,0,8-.09l-.51,6.24a20.73,20.73,0,0,0-.1,3,21.56,21.56,0,0,0,.45,2.65,16.92,16.92,0,0,1,.38,2.65v.49c-.55.56-1.87.52-2.49.49a42.33,42.33,0,0,0-4.65-.21c-2,.13-4,.47-6.07.54a10.12,10.12,0,0,1-2-.08A1.09,1.09,0,0,1,504.92,222.47Z"/><path fill="#2f627c" d="M525.61,193.54a12,12,0,0,0-1,2.59,7.61,7.61,0,0,0,.2,3.42,32,32,0,0,1,.72,10.6h-7.07a52.93,52.93,0,0,0-2-9.82,37.51,37.51,0,0,1-1.43-3.69c-.74-2.67-.06-5.53.4-8.2.51-2.92,1.11-5.83,1.56-8.75a51.39,51.39,0,0,0,.68-9.18h13.2c1.72,6.05-.34,12.46-2.88,18C527.22,190.22,526.4,191.88,525.61,193.54Z"/><path fill="#ffa18a" d="M491.9,149.85c-.62-.56-1-1-1-1a2,2,0,0,1-2.14.41s-7.34-4.55-9-2.79c-1.91,2.08-.94,4.78.93,6.86a3.25,3.25,0,0,1,.81,2.41.37.37,0,0,0,.67.16l.26-.32a.19.19,0,0,1,.25,0,9.05,9.05,0,0,0,1.89,1.14c1.49.62,2.67,1.75,4.25-.44a7.45,7.45,0,0,0,.5-.79l3.8,3.81c1.62,0,1.86-4.18,2.19-5.12a11.4,11.4,0,0,0,.45-2.44C494.34,151.11,492.85,150.74,491.9,149.85Z"/><path fill="#12252e" d="M491.32,147.25c-1-1.52-3.05-8.29-9.5-7.1-3.84.71-9.2,6.72-5.56,10.33,2,2,4.32-1.91,8.89.36,0,0,.2-.87.42-.9-.94-.65,1.47.74,3.23.8.91,0,2.75,0,3.44-1.55C492.86,147.81,491.7,147.82,491.32,147.25Z"/><path fill="#ffa18a" d="M486.73,149.35c.41.53.51,1.12,0,1.53a1.17,1.17,0,0,1-1.59-.11,1.14,1.14,0,0,1-.09-1.6C485.79,148.41,486.34,148.85,486.73,149.35Z"/><path fill="#12252e" d="M510.19,222.76a3.12,3.12,0,0,1,1.49-1.95c1.33-.9,5.51-2.09,6-2.49a3.9,3.9,0,0,0,1-3.11c-.08-2.33-.38-4.67-.57-7a21.91,21.91,0,0,0,8-.1l-.51,6.24a19.56,19.56,0,0,0-.09,3.06,19.79,19.79,0,0,0,.44,2.65,15.67,15.67,0,0,1,.38,2.65c0,.16,0,.48,0,.48-.55.57-1.87.52-2.49.5a42.33,42.33,0,0,0-4.65-.21c-2,.13-4,.46-6.07.54a10,10,0,0,1-2-.08A1.09,1.09,0,0,1,510.19,222.76Z"/><path fill="#ffa18a" d="M487.33,187c-.06.17-.15.35-.23.52a4.54,4.54,0,0,1-1.31,1.88,4.89,4.89,0,0,0-1.25.91c-.2.28-.31.59,0,.82a1.28,1.28,0,0,0,1.23,0c-.18.23-.31.55,0,.73s1,0,1.46-.22c-.18.21-.3.49-.09.73a1,1,0,0,0,.9.21c.15,0,.37-.16.49-.12s.16.22.27.26c.39.17.79-.17,1.08-.39a7.19,7.19,0,0,0,2.16-2.55c.28-.58.35-1.22.62-1.82a12.45,12.45,0,0,1,1.17-1.56c-.73-.68-1.95-1.78-2.93-2.63a3,3,0,0,1-2.06,1.33,8.46,8.46,0,0,0-2.07.28,6.14,6.14,0,0,0-1.65,1.22c-.24.23-.6.61-.29.93s.94-.07,1.26-.21.69-.3,1.05-.44S487.41,186.71,487.33,187Z"/><path fill="#98d4fc" d="M489.85,184.34a6.45,6.45,0,0,1,4.13,2.44c1.71-1.64,3.22-3.47,4.78-5.24,1.34-1.52,2.81-3,4-4.64a12.4,12.4,0,0,0,2.08-5.9,8.73,8.73,0,0,1,.82.52,14.1,14.1,0,0,1,5.38,7.62c1.53-1,7.7-1.67,9-2,2.66-.78,11.52-5.3,11.53-5.64,0-.94-1.85-4.9-2.3-5.74A29.59,29.59,0,0,0,495,151c-1.55-.15-.79,3.56-1.06,5.33-.08.54-.91,2.81-.91,2.81a11.6,11.6,0,0,0,.3,4.12,4.49,4.49,0,0,0,1.51,2.24,12.73,12.73,0,0,0,2.46,1.35c0,.14,0,.29,0,.43-.18,2.35-.21,4.46-1.48,6.53-1.07,1.73-2.31,3.32-3.32,5.09A43.23,43.23,0,0,0,489.85,184.34Z"/><path fill="#7abde1" d="M495.79,151c-.63,1.51-.37,3.26-.65,4.85a8.56,8.56,0,0,1-1.69,4c0,.06-.12,0-.08-.08a8.53,8.53,0,0,0,1.71-4.19c.23-1.51,0-3.14.61-4.57,0-.07.13,0,.1,0Z"/><path fill="#7abde1" d="M497.22,166.79c-.48-3.47-.94-7.13.55-10.43,0-.07.13,0,.1,0-1.48,3.27-1,6.91-.55,10.35,0,.07-.09.1-.1,0Z"/><path fill="#7abde1" d="M504.83,170.91c.32-1.76.65-3.52,1-5.28a21.91,21.91,0,0,0,.56-5.65,8.78,8.78,0,0,0-1.59-4.67,4.66,4.66,0,0,0-4.44-1.87c-.07,0-.09-.08,0-.1a4.58,4.58,0,0,1,4,1.29,7.61,7.61,0,0,1,2,4.36,16.83,16.83,0,0,1-.28,5.79c-.38,2.05-.76,4.11-1.13,6.16,0,.07-.12,0-.11,0Z"/><path fill="#98d4fc" d="M354.72,328.31l-.31,3.66c-2.88-1.12-13.89-2.71-13.2-7.57.62-4.36,2.19-7.55,4.65-12.53,2.64-5.34,4.36-7.63,11.85-8.25h10c5.67-.18,8.8,1.88,11.37,6.08a82.73,82.73,0,0,1,6.27,12.67c2.34,5.6-10.17,9-12.2,9.71-1.2.4-1.32-3-1.12-3.22,1-.89,7.54-4.1,6.69-5.38-3.65-5.56-5.87-8.47-5.87-8.47s.11,5.62.39,10.72c.35,6.12,1.81,6.39.23,9,0,0-5.82,1.76-9.7,1.55s-9.87-2.51-9.87-2.51c-1.34-2-.21-2.63-.1-7.73a96.92,96.92,0,0,0-.48-10.79,64.94,64.94,0,0,0-4.71,9.19C348.25,325.45,351.15,326.66,354.72,328.31Z"/><path fill="#ffa18a" d="M359.5,298.11v3.66c0,.34.09,1-.35,1.28a5.26,5.26,0,0,1-1.44.57s1.49,1.54,5.1,1.44c3.89-.1,4.87-1.44,4.87-1.44a2.66,2.66,0,0,1-1.48-.86,2.26,2.26,0,0,1-.28-1.17l0-3.48Z"/><path d="M365.93,300.53c-.89,1.45-5.69,1.33-6.43-.14v-1.88l6.42,0Z" style="mix-blend-mode:multiply" fill="#ffa18a" opacity=".3"/><path fill="#ffa18a" d="M368.6,291.89h-.12v-2.27c0-3.22-2.37-4.77-5.61-4.78h0c-3.23,0-6.09,1.53-6.11,4.75v2.26h-.05c-.71,0-1.33.67-.88,2.13s1.23,1.25,1.27,1.25c1.26,3.81,2.77,5.05,5.45,5.05,3.37,0,4.54-1.39,5.48-5,.06,0,.91.25,1.41-1.73C369.67,292.64,369.3,291.89,368.6,291.89Z"/><path fill="#a55852" d="M368.38,293.65c1.49-3,1.64-6.92-.05-9.17a3.24,3.24,0,0,0-3.93-1.19s-4.9-2.38-7.6,1.9c-2,3.1-.08,8.34-.08,8.34l.39.31s-.09-5,1.32-6c1-.8,7.13-.92,8.35,0,1.65,1.23,1.14,6.2,1.14,6.2Z"/><path fill="#2f627c" d="M353.8,333.11c-7.82-2.59-21.55-1-22,1.91-1.29,8.47,12.06,10.21,20.25,11.43,3,.44,6.79,1.69,11,1.48,26.19-1.33,31.4-8.41,30.28-14.11-.43-2.21-7.12-4.72-20-.24a23.48,23.48,0,0,1-10.18,1.57A30,30,0,0,1,353.8,333.11Z"/><path fill="#ffa18a" d="M353.12,328.38c-.6.71.13,2.53.33,2.86,1,1.63,3.6,3.08,5.36,2.4s2.78-2.34,2.38-3c-.27-.41-1-.18-3.26,0a3.26,3.26,0,0,1-2.25-.74c0-.29,2.3-.2,2.34-.65S353.89,327.49,353.12,328.38Z"/><path fill="#ffa18a" d="M373.27,329.26c.55.75-.32,2.51-.55,2.82-1.11,1.56-3.82,2.8-5.53,2s-2.59-2.56-2.14-3.15c.3-.38,1-.1,3.25.25a3.25,3.25,0,0,0,2.3-.56c0-.28-2.28-.37-2.28-.83S372.57,328.31,373.27,329.26Z"/><path fill="#ffa18a" d="M364.14,346.44c.28-2.6-5.12-.75-7.81-1.59-5-1.55-7.7-.73-8.13.43-.55,1.46.75,3,3,3.92,1.8.77,3.49.38,7-.22C361.47,348.44,363.83,349.41,364.14,346.44Z"/><path fill="#ffa18a" d="M362.12,343.63c-1.42-2.45,3.84-2.73,5.83-4.46,3.72-3.23,6.7-3.17,7.48-2.45a1.78,1.78,0,0,1,.53,1.36,31,31,0,0,1-6,3.91c-1.69.79-6.3,2.68-6.3,2.68A1.77,1.77,0,0,1,362.12,343.63Z"/><path fill="#254d62" d="M339,333.64a15.57,15.57,0,0,1,4.52,1.48q2.25.94,4.53,1.84a92.46,92.46,0,0,0,9.17,3.26q2.64.75,5.33,1.26c.1,0,.14-.13,0-.15a63.51,63.51,0,0,1-9.41-2.56c-3.12-1.12-6.19-2.37-9.24-3.64a17.43,17.43,0,0,0-4.94-1.65c-.1,0-.1.15,0,.16Z"/><path fill="#254d62" d="M376.12,337.76a38.61,38.61,0,0,1,4.83-2.9,22,22,0,0,1,5.05-2.44c.1,0,.05-.19-.05-.15a22.1,22.1,0,0,0-5.09,2.45,36.13,36.13,0,0,0-4.85,2.93c-.08.07,0,.18.11.11Z"/><path fill="#1f4152" d="M377,334.43a1.58,1.58,0,0,1-1.5,1.26H349.27a1.58,1.58,0,0,1-1.51-1.26L345,318.68a1,1,0,0,1,1.06-1.27H378.7a1.05,1.05,0,0,1,1.07,1.27Z"/><path fill="#98d4fc" d="M364.28,326.31a1.91,1.91,0,1,1-1.9-1.91A1.9,1.9,0,0,1,364.28,326.31Z" opacity=".3"/><rect width="58.64" height="47.22" x="85.44" y="292.96" fill="#2f627c"/><path fill="#4693b9" d="M83.62,291.25H145.9a2.22,2.22,0,0,1,2.22,2.22v8.89a2.23,2.23,0,0,1-2.23,2.23H83.62a2.22,2.22,0,0,1-2.22-2.22v-8.9A2.22,2.22,0,0,1,83.62,291.25Z"/><rect width="42.26" height="2.22" x="85.07" y="296.81" fill="#98d4fc" rx=".89"/><path fill="#2a817d" d="M134.91,297.92a1.11,1.11,0,1,1-1.11-1.11A1.11,1.11,0,0,1,134.91,297.92Z"/><path fill="#2f627c" d="M139.52,297.92a1.11,1.11,0,1,1-1.11-1.11A1.11,1.11,0,0,1,139.52,297.92Z"/><path fill="#ffbc33" d="M144.13,297.92a1.12,1.12,0,1,1-1.11-1.11A1.11,1.11,0,0,1,144.13,297.92Z"/><rect width="66.73" height="13.35" x="81.4" y="306.26" fill="#4693b9" rx="2.22"/><rect width="42.26" height="2.22" x="85.07" y="311.82" fill="#98d4fc" rx=".89"/><path fill="#a2ddd0" d="M134.91,312.93a1.11,1.11,0,1,1-1.11-1.11A1.11,1.11,0,0,1,134.91,312.93Z"/><path fill="#ffbc33" d="M139.52,312.93a1.11,1.11,0,1,1-1.11-1.11A1.12,1.12,0,0,1,139.52,312.93Z"/><path fill="#98d4fc" d="M144.13,312.93a1.12,1.12,0,1,1-1.11-1.11A1.12,1.12,0,0,1,144.13,312.93Z"/><rect width="66.73" height="13.34" x="81.4" y="321.28" fill="#4693b9" rx="2.22"/><rect width="42.26" height="2.22" x="85.07" y="326.84" fill="#98d4fc" rx=".89"/><path fill="#2a817d" d="M134.91,328a1.11,1.11,0,1,1-1.11-1.11A1.11,1.11,0,0,1,134.91,328Z"/><path fill="#98d4fc" d="M139.52,328a1.11,1.11,0,1,1-1.11-1.11A1.11,1.11,0,0,1,139.52,328Z"/><path fill="#a2ddd0" d="M144.13,328a1.12,1.12,0,1,1-1.11-1.11A1.11,1.11,0,0,1,144.13,328Z"/><path fill="#387694" d="M85,338h59.61a1.33,1.33,0,0,1,1.33,1.33v.89a1.33,1.33,0,0,1-1.33,1.33H85a1.33,1.33,0,0,1-1.33-1.33v-.89A1.34,1.34,0,0,1,85,338Z"/><path fill="#bf7968" d="M161.67,252.49a18,18,0,0,0-3.11-4.12c-.4-.37-2.2-2.46-2.6-2-.6.64.77,1.86,1.12,2.34a4.16,4.16,0,0,1,.73,1.68,3.31,3.31,0,0,0-.55-.5c-.25-.18-.72-.51-1-.25s-.11.8,0,1.1a5.61,5.61,0,0,1,.33,1,3.72,3.72,0,0,0,.16.82,5.47,5.47,0,0,0,1.1,1.58,9.21,9.21,0,0,0,1.55,1.23,4.58,4.58,0,0,1,1.23,2l.69,1.62,2.19-3.4C162.88,254.53,162.28,253.51,161.67,252.49Z"/><path fill="#29566d" d="M147.09,264.53l12-5a2.27,2.27,0,0,0,1.22-3l-12-28.74a2.26,2.26,0,0,0-3-1.22l-12,5a2.27,2.27,0,0,0-1.22,3l12,28.75A2.28,2.28,0,0,0,147.09,264.53Z"/><path fill="#bfe4fd" d="M133.78,232.15l11.68-4.87a1.69,1.69,0,0,1,2.23.91l11.87,28.44a1.7,1.7,0,0,1-.91,2.23L147,263.73a1.69,1.69,0,0,1-2.23-.92l-11.87-28.42A1.71,1.71,0,0,1,133.78,232.15Z"/><path fill="#29566d" d="M138.74,231.67l2.9-1.2a.48.48,0,0,0,.25-.61h0a.47.47,0,0,0-.61-.25l-2.9,1.21a.48.48,0,0,0-.25.61h0A.47.47,0,0,0,138.74,231.67Z"/><path fill="#2f627c" d="M151.2,243.55l-.48-.06a.32.32,0,0,1-.26-.26l-.08-.6a.31.31,0,0,1,.17-.33l.44-.18a.24.24,0,0,0,.12-.31l-.45-1.06a.25.25,0,0,0-.31-.13l-.44.19a.31.31,0,0,1-.36-.09l-.37-.48a.29.29,0,0,1,0-.36l.28-.39a.23.23,0,0,0,0-.33l-.92-.69a.25.25,0,0,0-.33.05l-.29.38a.3.3,0,0,1-.35.1l-.56-.23a.3.3,0,0,1-.2-.31l.06-.47a.25.25,0,0,0-.21-.27l-1.15-.13a.25.25,0,0,0-.26.21l-.05.47a.32.32,0,0,1-.27.26l-.59.09a.32.32,0,0,1-.33-.17l-.19-.44a.24.24,0,0,0-.31-.13l-1,.46a.24.24,0,0,0-.13.31l.19.44a.31.31,0,0,1-.1.36l-.47.37a.32.32,0,0,1-.37,0l-.38-.28a.23.23,0,0,0-.33,0l-.69.92a.23.23,0,0,0,0,.33l.38.28a.3.3,0,0,1,.09.36l-.22.56a.3.3,0,0,1-.31.19l-.47-.05a.24.24,0,0,0-.27.2l-.13,1.15a.25.25,0,0,0,.21.27l.47.05a.3.3,0,0,1,.26.26l.09.6a.32.32,0,0,1-.18.32l-.43.19a.23.23,0,0,0-.13.31l.46,1.06a.23.23,0,0,0,.31.12l.44-.18a.31.31,0,0,1,.35.09l.38.47a.32.32,0,0,1,0,.37l-.29.39a.25.25,0,0,0,.05.33l.93.69a.25.25,0,0,0,.33,0l.28-.39a.32.32,0,0,1,.36-.09l.56.23a.29.29,0,0,1,.19.3l0,.48a.23.23,0,0,0,.2.26l1.15.14a.24.24,0,0,0,.26-.21l.05-.47a.31.31,0,0,1,.27-.26l.6-.09a.3.3,0,0,1,.32.18l.19.43a.23.23,0,0,0,.31.12l1.06-.45a.24.24,0,0,0,.12-.31l-.19-.44a.33.33,0,0,1,.1-.36l.47-.37a.32.32,0,0,1,.37,0l.39.28a.22.22,0,0,0,.32,0l.69-.93a.24.24,0,0,0,0-.33l-.39-.29a.31.31,0,0,1-.09-.35l.22-.56a.29.29,0,0,1,.31-.19l.48,0a.24.24,0,0,0,.26-.21l.13-1.14A.22.22,0,0,0,151.2,243.55Zm-1.46.49L149,244a3.61,3.61,0,0,0-.23-1.61l.68-.29A4.38,4.38,0,0,1,149.74,244Zm-5,3a3.43,3.43,0,0,1-1.37-.54l-.23-.18a3.31,3.31,0,0,1-.91-1.16,1.31,1.31,0,0,1-.12-.27,3.53,3.53,0,0,1-.22-1.46s0-.09,0-.14a.77.77,0,0,1,0-.15,3.38,3.38,0,0,1,.54-1.36c.06-.08.12-.17.18-.24a3.22,3.22,0,0,1,1.16-.91,1.11,1.11,0,0,1,.27-.12,3.35,3.35,0,0,1,1.45-.21h.15l.14,0a3.25,3.25,0,0,1,1.37.55l.24.17a3.55,3.55,0,0,1,.91,1.16l.12.27a3.35,3.35,0,0,1,.21,1.45c0,.05,0,.1,0,.15a.78.78,0,0,0,0,.14,3.53,3.53,0,0,1-.55,1.37l-.17.24a3.43,3.43,0,0,1-1.16.91,1.53,1.53,0,0,1-.27.11,3.25,3.25,0,0,1-1.46.22h-.14Zm4.55-5.25-.68.3a3.68,3.68,0,0,0-1-1.28l.44-.59A4.53,4.53,0,0,1,149.33,241.78ZM147.85,240l-.44.59a3.85,3.85,0,0,0-1.51-.59l.08-.74A4.54,4.54,0,0,1,147.85,240Zm-2.16-.77-.08.73a3.75,3.75,0,0,0-1.61.23l-.3-.67A4.43,4.43,0,0,1,145.69,239.26Zm-2.26.4.3.68a3.71,3.71,0,0,0-1.28,1l-.59-.44A4.56,4.56,0,0,1,143.43,239.66Zm-1.75,1.49.59.44a3.57,3.57,0,0,0-.59,1.51l-.74-.09A4.42,4.42,0,0,1,141.68,241.15Zm-.77,2.15.73.09a3.61,3.61,0,0,0,.24,1.61l-.68.29A4.41,4.41,0,0,1,140.91,243.3Zm.4,2.26.68-.29a3.58,3.58,0,0,0,1,1.27l-.44.6A4.57,4.57,0,0,1,141.31,245.56Zm1.48,1.75.44-.59a3.82,3.82,0,0,0,1.52.6l-.09.74A4.53,4.53,0,0,1,142.79,247.31Zm2.16.78.09-.73a3.78,3.78,0,0,0,1.61-.24l.29.68A4.43,4.43,0,0,1,145,248.09Zm2.26-.41-.29-.68a3.64,3.64,0,0,0,1.27-1l.6.44A4.54,4.54,0,0,1,147.21,247.68ZM149,246.2l-.59-.44a3.72,3.72,0,0,0,.6-1.51l.74.09A4.43,4.43,0,0,1,149,246.2Z"/><path fill="#bf7968" d="M138.23,250.84c0-.23.23-.84.6-.63s.27,1.2.31,1.55a3.51,3.51,0,0,0,1.31,2.18,3,3,0,0,1-.13-.74c0-.31,0-.88.34-1s.74.33.94.6a5.36,5.36,0,0,0,.69.82,4.19,4.19,0,0,1,.61.58,5.69,5.69,0,0,1,.74,1.78,9.13,9.13,0,0,1,.22,2,4.38,4.38,0,0,0,1,2.09c.33.49.67,1,1,1.45l-4.05,0c-.55-1.05-1.1-2.1-1.63-3.16a15.9,15.9,0,0,1-1.83-4.84A9.51,9.51,0,0,1,138.23,250.84Z"/><path fill="#bf7968" d="M166.78,242.41a6.69,6.69,0,0,0,1-1.17c.5-1.12.31-2.16,1-3.08l8.1.74.1.11a8.17,8.17,0,0,1,1.31,3.23,11.19,11.19,0,0,1,.11,4.12c-.06.37-.37,1.76-.9,2.12l-.06,1.33a11.48,11.48,0,0,1-.06,1.55l-8.2-.74c0-.58.08-1.16.15-1.72a4.19,4.19,0,0,1-1.42-1.81,4.14,4.14,0,0,1-.14-1.45,2.35,2.35,0,0,0-.75-2c-.24-.21-.45-.38-.41-.74A.79.79,0,0,1,166.78,242.41Z"/><path fill="#12252e" d="M178.25,340.61l5.41,0c.15,1,.74,1.84.82,2.83a2.11,2.11,0,0,1-1.23,2.1,5.71,5.71,0,0,1-1.54.32,15,15,0,0,1-1.89.2,1.54,1.54,0,0,1-1.72-1.44,12.16,12.16,0,0,1,.24-1.91A8.36,8.36,0,0,0,178.25,340.61Z"/><path fill="#2a817d" d="M177.72,340.62a74,74,0,0,0-.26-9.42c-.4-3.6-1.6-7-1.8-10.66-.1-1.92-4-18-5.07-21.51-1.15,4.15-2.24,8.32-3.66,12.36a24.19,24.19,0,0,0-1.08,6.62c-.15,2.08-.35,4.16-.63,6.23-.58,4.38-3.6,16.35-3.63,16.5l-6,0c.12-4.07,1.55-16.31,1.35-18.5s-.66-23.55,1.4-31.92l23.18-.17c.53,3.76,1.12,7.53,1.38,11.33.32,4.56-.19,9.11-.15,13.67s1.11,8.94,1.41,13.46a98.59,98.59,0,0,1-.06,11.91Z"/><path fill="#a2ddd0" d="M184.66,255.62c-1.72-1.72-4.09-2.1-6-3.38a10.17,10.17,0,0,0-.72-1.51c-.32-.31-8.79-.31-8.94-.14a5.83,5.83,0,0,0-1.21,1.84,7,7,0,0,1-2,.66,11.8,11.8,0,0,0-2.46.67,23.69,23.69,0,0,0-3.31,1.47v12h0c.59,8.4-2.63,16.59-3.53,24.9,2,.05,22.79,1.62,26.29,2.52a53.16,53.16,0,0,0,1-11.26c0-3.36-.08-6.72.09-10.07a44,44,0,0,1,.49-4.86,44.49,44.49,0,0,1,1.24-5.19C186.32,260.62,186.65,257.61,184.66,255.62Z"/><path fill="#a2ddd0" d="M160.65,265.56l1.07-11.05a13,13,0,0,0-1.23.47,24,24,0,0,0-4.6,2.9,35.67,35.67,0,0,1-4.64,3.14,20.75,20.75,0,0,1-3.89,1.61,26.74,26.74,0,0,0-2.75-3.72,5.48,5.48,0,0,1-3.68,2.11c0,1.25.09,2.49.15,3.74.08,1.94.49,3.74,3.15,4.87a2.83,2.83,0,0,0,.63.18A10.57,10.57,0,0,0,150,269c1.7-.6,3.35-1.34,5-1.91a20.51,20.51,0,0,1,2.61-.69C158.13,266.26,160.14,265.64,160.65,265.56Z"/><path fill="#12252e" d="M161.35,340.74l-5.41,0c-.13,1-.72,1.86-.78,2.85a2.12,2.12,0,0,0,1.25,2.08,5.91,5.91,0,0,0,1.55.3,17.41,17.41,0,0,0,1.9.17,1.54,1.54,0,0,0,1.69-1.47,11.38,11.38,0,0,0-.26-1.91A7.83,7.83,0,0,1,161.35,340.74Z"/><path fill="#12252e" d="M180.24,239.23a5.06,5.06,0,0,0-2.3-4.51,5.41,5.41,0,0,0-2.55-.85c-1.11-.09-2.21.22-3.33.16-1.79-.09-3.8-.48-4.82,1.38a6.1,6.1,0,0,0-.67,2.71,2.08,2.08,0,0,0,.61,1.33c.48,1,1.44,1.91,1.8,2.83a15.2,15.2,0,0,1,1,2.47c.16.75,0,1.52.18,2.26.25,1.37,1.6,1.91,2.68,2.56a1.64,1.64,0,0,0,1.63.11c.72-.25,1.51-.25,2.22-.53,2.32-.94,3-3.9,3-6.26,0-.1,0-.19.05-.3A25.19,25.19,0,0,0,180.24,239.23Z"/></g></svg>